<mxfile host="app.diagrams.net" agent="Mozilla/5.0 (Macintosh; Intel Mac OS X 10_15_7) AppleWebKit/537.36 (KHTML, like Gecko) Chrome/131.0.0.0 Safari/537.36 Edg/131.0.0.0" version="26.0.2">
  <diagram name="第 1 页" id="jOia7ihSZ2OZfPWWlmXI">
    <mxGraphModel dx="679" dy="409" grid="0" gridSize="10" guides="1" tooltips="1" connect="1" arrows="1" fold="1" page="1" pageScale="1" pageWidth="850" pageHeight="1100" math="0" shadow="0">
      <root>
        <mxCell id="0" />
        <mxCell id="1" parent="0" />
        <mxCell id="eKCBTj_nnN3iUb_JfraB-465" style="rounded=0;orthogonalLoop=1;jettySize=auto;html=1;endArrow=openThin;endFill=0;strokeWidth=3;endSize=3;entryX=-0.025;entryY=0.859;entryDx=0;entryDy=0;exitX=1;exitY=0.5;exitDx=0;exitDy=0;entryPerimeter=0;fillColor=#ffe6cc;strokeColor=#d79b00;" edge="1" parent="1" target="eKCBTj_nnN3iUb_JfraB-466" source="eKCBTj_nnN3iUb_JfraB-453">
          <mxGeometry relative="1" as="geometry">
            <mxPoint x="362.75" y="544" as="sourcePoint" />
            <mxPoint x="393.8382352941177" y="554.1342465753423" as="targetPoint" />
          </mxGeometry>
        </mxCell>
        <mxCell id="eKCBTj_nnN3iUb_JfraB-385" style="rounded=0;orthogonalLoop=1;jettySize=auto;html=1;endArrow=openThin;endFill=0;strokeColor=#82b366;strokeWidth=3;fillColor=#d5e8d4;endSize=3;" edge="1" parent="1" source="eKCBTj_nnN3iUb_JfraB-347">
          <mxGeometry relative="1" as="geometry">
            <mxPoint x="403" y="366" as="sourcePoint" />
            <mxPoint x="429" y="382" as="targetPoint" />
          </mxGeometry>
        </mxCell>
        <mxCell id="eKCBTj_nnN3iUb_JfraB-410" style="rounded=0;orthogonalLoop=1;jettySize=auto;html=1;endArrow=openThin;endFill=0;strokeColor=#82b366;strokeWidth=3;fillColor=#d5e8d4;endSize=3;exitX=0;exitY=0;exitDx=0;exitDy=0;" edge="1" parent="1" source="eKCBTj_nnN3iUb_JfraB-402">
          <mxGeometry relative="1" as="geometry">
            <mxPoint x="289" y="396" as="sourcePoint" />
            <mxPoint x="300" y="365" as="targetPoint" />
          </mxGeometry>
        </mxCell>
        <mxCell id="eKCBTj_nnN3iUb_JfraB-361" value="" style="rounded=1;whiteSpace=wrap;html=1;fillColor=none;strokeColor=#ae4132;strokeWidth=2.5;" vertex="1" parent="1">
          <mxGeometry x="190" y="327" width="250" height="135" as="geometry" />
        </mxCell>
        <mxCell id="eKCBTj_nnN3iUb_JfraB-358" style="rounded=0;orthogonalLoop=1;jettySize=auto;html=1;endArrow=openThin;endFill=0;strokeColor=#82b366;strokeWidth=3;fillColor=#d5e8d4;endSize=3;exitX=1;exitY=1;exitDx=0;exitDy=0;" edge="1" parent="1" source="eKCBTj_nnN3iUb_JfraB-328">
          <mxGeometry relative="1" as="geometry">
            <mxPoint x="163" y="355" as="sourcePoint" />
            <mxPoint x="188" y="372" as="targetPoint" />
          </mxGeometry>
        </mxCell>
        <mxCell id="eKCBTj_nnN3iUb_JfraB-357" style="rounded=0;orthogonalLoop=1;jettySize=auto;html=1;endArrow=openThin;endFill=0;strokeColor=#82b366;strokeWidth=3;fillColor=#d5e8d4;endSize=3;exitX=0.5;exitY=1;exitDx=0;exitDy=0;entryX=0;entryY=0;entryDx=0;entryDy=0;" edge="1" parent="1" source="eKCBTj_nnN3iUb_JfraB-281" target="eKCBTj_nnN3iUb_JfraB-356">
          <mxGeometry relative="1" as="geometry">
            <mxPoint x="469" y="411.1" as="sourcePoint" />
            <mxPoint x="486" y="423.6" as="targetPoint" />
          </mxGeometry>
        </mxCell>
        <mxCell id="eKCBTj_nnN3iUb_JfraB-354" style="rounded=0;orthogonalLoop=1;jettySize=auto;html=1;endArrow=openThin;endFill=0;strokeColor=#82b366;strokeWidth=3;fillColor=#d5e8d4;endSize=3;exitX=1;exitY=0;exitDx=0;exitDy=0;entryX=0;entryY=1;entryDx=0;entryDy=0;" edge="1" parent="1" target="eKCBTj_nnN3iUb_JfraB-353">
          <mxGeometry relative="1" as="geometry">
            <mxPoint x="482" y="383.8" as="sourcePoint" />
            <mxPoint x="496" y="369.8" as="targetPoint" />
          </mxGeometry>
        </mxCell>
        <mxCell id="eKCBTj_nnN3iUb_JfraB-330" style="rounded=0;orthogonalLoop=1;jettySize=auto;html=1;endArrow=openThin;endFill=0;strokeColor=#82b366;strokeWidth=3;fillColor=#d5e8d4;endSize=3;entryX=0.568;entryY=-0.11;entryDx=0;entryDy=0;exitX=0.5;exitY=1;exitDx=0;exitDy=0;entryPerimeter=0;" edge="1" parent="1" source="eKCBTj_nnN3iUb_JfraB-328">
          <mxGeometry relative="1" as="geometry">
            <mxPoint x="158.5710678118611" y="364.27106781186114" as="sourcePoint" />
            <mxPoint x="168.85999999999996" y="378.5" as="targetPoint" />
            <Array as="points" />
          </mxGeometry>
        </mxCell>
        <mxCell id="eKCBTj_nnN3iUb_JfraB-152" style="rounded=0;orthogonalLoop=1;jettySize=auto;html=1;endArrow=openThin;endFill=0;strokeColor=#82b366;strokeWidth=2;fillColor=#d5e8d4;endSize=3;entryX=0;entryY=0.5;entryDx=0;entryDy=0;exitX=1;exitY=0.5;exitDx=0;exitDy=0;" edge="1" parent="1" target="eKCBTj_nnN3iUb_JfraB-153">
          <mxGeometry relative="1" as="geometry">
            <mxPoint x="362" y="198.5" as="sourcePoint" />
            <mxPoint x="393.0882352941177" y="208.63424657534233" as="targetPoint" />
          </mxGeometry>
        </mxCell>
        <mxCell id="eKCBTj_nnN3iUb_JfraB-12" style="rounded=0;orthogonalLoop=1;jettySize=auto;html=1;endArrow=openThin;endFill=0;strokeColor=#82b366;strokeWidth=2;fillColor=#d5e8d4;endSize=3;entryX=0;entryY=0.5;entryDx=0;entryDy=0;exitX=1.036;exitY=0.524;exitDx=0;exitDy=0;exitPerimeter=0;" edge="1" parent="1" source="eKCBTj_nnN3iUb_JfraB-3">
          <mxGeometry relative="1" as="geometry">
            <mxPoint x="166" y="135" as="sourcePoint" />
            <mxPoint x="184" y="135.5" as="targetPoint" />
          </mxGeometry>
        </mxCell>
        <mxCell id="eKCBTj_nnN3iUb_JfraB-1" style="rounded=0;orthogonalLoop=1;jettySize=auto;html=1;endArrow=openThin;endFill=0;strokeColor=#82b366;strokeWidth=2;fillColor=#d5e8d4;endSize=3;entryX=0;entryY=0.5;entryDx=0;entryDy=0;exitX=1;exitY=0.5;exitDx=0;exitDy=0;" edge="1" parent="1" source="eKCBTj_nnN3iUb_JfraB-2" target="eKCBTj_nnN3iUb_JfraB-3">
          <mxGeometry relative="1" as="geometry">
            <mxPoint x="136" y="134.5" as="sourcePoint" />
            <mxPoint x="167.08823529411768" y="144.63424657534233" as="targetPoint" />
          </mxGeometry>
        </mxCell>
        <mxCell id="eKCBTj_nnN3iUb_JfraB-2" value="&lt;div style=&quot;text-align: left;&quot;&gt;&lt;span style=&quot;background-color: transparent; color: light-dark(rgb(0, 0, 0), rgb(255, 255, 255)); font-size: 15px; text-wrap-mode: nowrap;&quot;&gt;&lt;font face=&quot;Courier New&quot;&gt;&lt;b&gt;1&lt;/b&gt;&lt;/font&gt;&lt;/span&gt;&lt;/div&gt;" style="ellipse;whiteSpace=wrap;html=1;aspect=fixed;strokeWidth=2;fillColor=#b1ddf0;strokeColor=#10739e;" vertex="1" parent="1">
          <mxGeometry x="108" y="124.5" width="20" height="20" as="geometry" />
        </mxCell>
        <mxCell id="eKCBTj_nnN3iUb_JfraB-3" value="&lt;div style=&quot;text-align: left;&quot;&gt;&lt;span style=&quot;background-color: transparent; color: light-dark(rgb(0, 0, 0), rgb(255, 255, 255)); font-size: 15px; text-wrap-mode: nowrap;&quot;&gt;&lt;font face=&quot;Courier New&quot;&gt;&lt;b&gt;2&lt;/b&gt;&lt;/font&gt;&lt;/span&gt;&lt;/div&gt;" style="ellipse;whiteSpace=wrap;html=1;aspect=fixed;strokeWidth=2;fillColor=#b1ddf0;strokeColor=#10739e;" vertex="1" parent="1">
          <mxGeometry x="145" y="124.5" width="20" height="20" as="geometry" />
        </mxCell>
        <mxCell id="eKCBTj_nnN3iUb_JfraB-9" style="rounded=0;orthogonalLoop=1;jettySize=auto;html=1;endArrow=openThin;endFill=0;strokeColor=#82b366;strokeWidth=2;fillColor=#d5e8d4;endSize=3;entryX=0;entryY=0.5;entryDx=0;entryDy=0;exitX=1;exitY=0.5;exitDx=0;exitDy=0;" edge="1" parent="1" source="eKCBTj_nnN3iUb_JfraB-10">
          <mxGeometry relative="1" as="geometry">
            <mxPoint x="239.4176470588236" y="140.10273972602727" as="sourcePoint" />
            <mxPoint x="242" y="134.5" as="targetPoint" />
          </mxGeometry>
        </mxCell>
        <mxCell id="eKCBTj_nnN3iUb_JfraB-10" value="&lt;div style=&quot;text-align: left;&quot;&gt;&lt;span style=&quot;background-color: transparent; color: light-dark(rgb(0, 0, 0), rgb(255, 255, 255)); text-wrap-mode: nowrap;&quot;&gt;&lt;font face=&quot;Courier New&quot;&gt;&lt;b&gt;i&lt;/b&gt;&lt;/font&gt;&lt;/span&gt;&lt;/div&gt;" style="ellipse;whiteSpace=wrap;html=1;aspect=fixed;strokeWidth=2;fillColor=#b1ddf0;strokeColor=#10739e;" vertex="1" parent="1">
          <mxGeometry x="204" y="124.5" width="20" height="20" as="geometry" />
        </mxCell>
        <mxCell id="eKCBTj_nnN3iUb_JfraB-13" value="&lt;font style=&quot;font-size: 14px; color: rgb(0, 102, 102);&quot; face=&quot;Tahoma&quot;&gt;...&lt;/font&gt;" style="text;html=1;align=center;verticalAlign=middle;resizable=0;points=[];autosize=1;strokeColor=none;fillColor=none;" vertex="1" parent="1">
          <mxGeometry x="173" y="116.5" width="40" height="30" as="geometry" />
        </mxCell>
        <mxCell id="eKCBTj_nnN3iUb_JfraB-17" style="rounded=0;orthogonalLoop=1;jettySize=auto;html=1;endArrow=openThin;endFill=0;strokeColor=#82b366;strokeWidth=2;fillColor=#d5e8d4;endSize=3;entryX=0;entryY=0.5;entryDx=0;entryDy=0;exitX=1;exitY=0.5;exitDx=0;exitDy=0;" edge="1" parent="1" target="eKCBTj_nnN3iUb_JfraB-18">
          <mxGeometry relative="1" as="geometry">
            <mxPoint x="302" y="134.5" as="sourcePoint" />
            <mxPoint x="333.0882352941177" y="144.63424657534233" as="targetPoint" />
          </mxGeometry>
        </mxCell>
        <mxCell id="eKCBTj_nnN3iUb_JfraB-18" value="&lt;div style=&quot;text-align: left;&quot;&gt;&lt;span style=&quot;background-color: transparent; color: light-dark(rgb(0, 0, 0), rgb(255, 255, 255)); text-wrap-mode: nowrap;&quot;&gt;&lt;font face=&quot;Courier New&quot;&gt;&lt;b&gt;j&lt;/b&gt;&lt;/font&gt;&lt;/span&gt;&lt;/div&gt;" style="ellipse;whiteSpace=wrap;html=1;aspect=fixed;strokeWidth=2;fillColor=#b1ddf0;strokeColor=#10739e;" vertex="1" parent="1">
          <mxGeometry x="320" y="124.5" width="20" height="20" as="geometry" />
        </mxCell>
        <mxCell id="eKCBTj_nnN3iUb_JfraB-21" value="&lt;font style=&quot;font-size: 14px; color: rgb(0, 102, 102);&quot; face=&quot;Tahoma&quot;&gt;...&lt;/font&gt;" style="text;html=1;align=center;verticalAlign=middle;resizable=0;points=[];autosize=1;strokeColor=none;fillColor=none;" vertex="1" parent="1">
          <mxGeometry x="272" y="116.5" width="40" height="30" as="geometry" />
        </mxCell>
        <mxCell id="eKCBTj_nnN3iUb_JfraB-22" value="&lt;font style=&quot;font-size: 14px; color: rgb(0, 102, 102);&quot; face=&quot;Tahoma&quot;&gt;...&lt;/font&gt;" style="text;html=1;align=center;verticalAlign=middle;resizable=0;points=[];autosize=1;strokeColor=none;fillColor=none;" vertex="1" parent="1">
          <mxGeometry x="331" y="116.5" width="40" height="30" as="geometry" />
        </mxCell>
        <mxCell id="eKCBTj_nnN3iUb_JfraB-23" value="&lt;div style=&quot;text-align: left;&quot;&gt;&lt;span style=&quot;background-color: transparent; color: light-dark(rgb(0, 0, 0), rgb(255, 255, 255)); text-wrap-mode: nowrap;&quot;&gt;&lt;font face=&quot;Courier New&quot;&gt;&lt;b&gt;k&lt;/b&gt;&lt;/font&gt;&lt;/span&gt;&lt;/div&gt;" style="ellipse;whiteSpace=wrap;html=1;aspect=fixed;strokeWidth=2;fillColor=#b1ddf0;strokeColor=#10739e;" vertex="1" parent="1">
          <mxGeometry x="262" y="124.5" width="20" height="20" as="geometry" />
        </mxCell>
        <mxCell id="eKCBTj_nnN3iUb_JfraB-24" value="&lt;font style=&quot;font-size: 14px; color: rgb(0, 102, 102);&quot; face=&quot;Tahoma&quot;&gt;...&lt;/font&gt;" style="text;html=1;align=center;verticalAlign=middle;resizable=0;points=[];autosize=1;strokeColor=none;fillColor=none;" vertex="1" parent="1">
          <mxGeometry x="231" y="116.5" width="40" height="30" as="geometry" />
        </mxCell>
        <mxCell id="eKCBTj_nnN3iUb_JfraB-25" value="" style="shape=curlyBracket;whiteSpace=wrap;html=1;rounded=1;flipH=1;labelPosition=right;verticalLabelPosition=middle;align=left;verticalAlign=middle;strokeWidth=2;fillColor=#fad9d5;strokeColor=#ae4132;rotation=90;" vertex="1" parent="1">
          <mxGeometry x="266.5" y="91.5" width="11" height="120" as="geometry" />
        </mxCell>
        <mxCell id="eKCBTj_nnN3iUb_JfraB-27" value="" style="shape=curlyBracket;whiteSpace=wrap;html=1;rounded=1;flipH=1;labelPosition=right;verticalLabelPosition=middle;align=left;verticalAlign=middle;strokeWidth=2;fillColor=#fad9d5;strokeColor=#ae4132;rotation=-90;" vertex="1" parent="1">
          <mxGeometry x="238.5" y="101.5" width="10" height="35" as="geometry" />
        </mxCell>
        <mxCell id="eKCBTj_nnN3iUb_JfraB-35" value="" style="shape=curlyBracket;whiteSpace=wrap;html=1;rounded=1;flipH=1;labelPosition=right;verticalLabelPosition=middle;align=left;verticalAlign=middle;strokeWidth=2;fillColor=#fad9d5;strokeColor=#ae4132;rotation=-90;" vertex="1" parent="1">
          <mxGeometry x="294.6" y="101" width="10" height="35" as="geometry" />
        </mxCell>
        <mxCell id="eKCBTj_nnN3iUb_JfraB-79" style="rounded=0;orthogonalLoop=1;jettySize=auto;html=1;endArrow=openThin;endFill=0;strokeColor=#82b366;strokeWidth=2;fillColor=#d5e8d4;endSize=3;entryX=0;entryY=0.5;entryDx=0;entryDy=0;" edge="1" parent="1">
          <mxGeometry relative="1" as="geometry">
            <mxPoint x="205.5" y="199.5" as="sourcePoint" />
            <mxPoint x="222.5" y="199.5" as="targetPoint" />
          </mxGeometry>
        </mxCell>
        <mxCell id="eKCBTj_nnN3iUb_JfraB-80" style="rounded=0;orthogonalLoop=1;jettySize=auto;html=1;endArrow=openThin;endFill=0;strokeColor=#82b366;strokeWidth=2;fillColor=#d5e8d4;endSize=3;entryX=0;entryY=0.5;entryDx=0;entryDy=0;" edge="1" parent="1" target="eKCBTj_nnN3iUb_JfraB-82">
          <mxGeometry relative="1" as="geometry">
            <mxPoint x="168.5" y="198.5" as="sourcePoint" />
            <mxPoint x="199.58823529411768" y="208.63424657534233" as="targetPoint" />
          </mxGeometry>
        </mxCell>
        <mxCell id="eKCBTj_nnN3iUb_JfraB-81" value="&lt;div style=&quot;text-align: left;&quot;&gt;&lt;span style=&quot;background-color: transparent; color: light-dark(rgb(0, 0, 0), rgb(255, 255, 255)); text-wrap-mode: nowrap;&quot;&gt;&lt;font face=&quot;Courier New&quot;&gt;&lt;b&gt;0&lt;/b&gt;&lt;/font&gt;&lt;/span&gt;&lt;/div&gt;" style="ellipse;whiteSpace=wrap;html=1;aspect=fixed;strokeWidth=2;fillColor=#b1ddf0;strokeColor=#10739e;" vertex="1" parent="1">
          <mxGeometry x="148.5" y="188.5" width="20" height="20" as="geometry" />
        </mxCell>
        <mxCell id="eKCBTj_nnN3iUb_JfraB-82" value="&lt;div style=&quot;text-align: left;&quot;&gt;&lt;span style=&quot;background-color: transparent; color: light-dark(rgb(0, 0, 0), rgb(255, 255, 255)); text-wrap-mode: nowrap;&quot;&gt;&lt;font face=&quot;Courier New&quot;&gt;&lt;b&gt;1&lt;/b&gt;&lt;/font&gt;&lt;/span&gt;&lt;/div&gt;" style="ellipse;whiteSpace=wrap;html=1;aspect=fixed;strokeWidth=2;fillColor=#b1ddf0;strokeColor=#10739e;" vertex="1" parent="1">
          <mxGeometry x="185.5" y="188.5" width="20" height="20" as="geometry" />
        </mxCell>
        <mxCell id="eKCBTj_nnN3iUb_JfraB-84" value="&lt;div style=&quot;text-align: left;&quot;&gt;&lt;span style=&quot;background-color: transparent; color: light-dark(rgb(0, 0, 0), rgb(255, 255, 255)); text-wrap-mode: nowrap;&quot;&gt;&lt;font face=&quot;Courier New&quot;&gt;&lt;b&gt;i&lt;/b&gt;&lt;/font&gt;&lt;/span&gt;&lt;/div&gt;" style="ellipse;whiteSpace=wrap;html=1;aspect=fixed;strokeWidth=2;fillColor=#b1ddf0;strokeColor=#10739e;" vertex="1" parent="1">
          <mxGeometry x="242.5" y="188.5" width="20" height="20" as="geometry" />
        </mxCell>
        <mxCell id="eKCBTj_nnN3iUb_JfraB-85" value="&lt;font style=&quot;font-size: 14px; color: rgb(0, 102, 102);&quot; face=&quot;Tahoma&quot;&gt;...&lt;/font&gt;" style="text;html=1;align=center;verticalAlign=middle;resizable=0;points=[];autosize=1;strokeColor=none;fillColor=none;" vertex="1" parent="1">
          <mxGeometry x="211.5" y="180.5" width="40" height="30" as="geometry" />
        </mxCell>
        <mxCell id="eKCBTj_nnN3iUb_JfraB-86" style="rounded=0;orthogonalLoop=1;jettySize=auto;html=1;endArrow=openThin;endFill=0;strokeColor=#82b366;strokeWidth=2;fillColor=#d5e8d4;endSize=3;entryX=0;entryY=0.5;entryDx=0;entryDy=0;exitX=1;exitY=0.5;exitDx=0;exitDy=0;" edge="1" parent="1" target="eKCBTj_nnN3iUb_JfraB-87">
          <mxGeometry relative="1" as="geometry">
            <mxPoint x="323.5" y="198.5" as="sourcePoint" />
            <mxPoint x="354.5882352941177" y="208.63424657534233" as="targetPoint" />
          </mxGeometry>
        </mxCell>
        <mxCell id="eKCBTj_nnN3iUb_JfraB-87" value="&lt;div style=&quot;text-align: left;&quot;&gt;&lt;span style=&quot;background-color: transparent; color: light-dark(rgb(0, 0, 0), rgb(255, 255, 255)); text-wrap-mode: nowrap;&quot;&gt;&lt;font style=&quot;&quot; face=&quot;Courier New&quot;&gt;&lt;b style=&quot;&quot;&gt;&lt;span style=&quot;font-size: 11px;&quot;&gt;n&lt;/span&gt;&lt;font style=&quot;font-size: 9px;&quot;&gt;-&lt;/font&gt;&lt;span style=&quot;font-size: 11px;&quot;&gt;1&lt;/span&gt;&lt;/b&gt;&lt;/font&gt;&lt;/span&gt;&lt;/div&gt;" style="ellipse;whiteSpace=wrap;html=1;aspect=fixed;strokeWidth=2;fillColor=#b1ddf0;strokeColor=#10739e;" vertex="1" parent="1">
          <mxGeometry x="341.5" y="188.5" width="20" height="20" as="geometry" />
        </mxCell>
        <mxCell id="eKCBTj_nnN3iUb_JfraB-88" style="rounded=0;orthogonalLoop=1;jettySize=auto;html=1;endArrow=openThin;endFill=0;strokeColor=light-dark(#d79b00, #446e2c);strokeWidth=2;fillColor=#d5e8d4;endSize=3;entryX=0;entryY=0.5;entryDx=0;entryDy=0;exitX=1;exitY=0.5;exitDx=0;exitDy=0;" edge="1" parent="1" target="eKCBTj_nnN3iUb_JfraB-89">
          <mxGeometry relative="1" as="geometry">
            <mxPoint x="263.5" y="198.5" as="sourcePoint" />
            <mxPoint x="294.5882352941177" y="208.63424657534233" as="targetPoint" />
          </mxGeometry>
        </mxCell>
        <mxCell id="eKCBTj_nnN3iUb_JfraB-89" value="&lt;div style=&quot;text-align: left;&quot;&gt;&lt;span style=&quot;background-color: transparent; color: light-dark(rgb(0, 0, 0), rgb(255, 255, 255)); text-wrap-mode: nowrap;&quot;&gt;&lt;font face=&quot;Courier New&quot;&gt;&lt;b&gt;j&lt;/b&gt;&lt;/font&gt;&lt;/span&gt;&lt;/div&gt;" style="ellipse;whiteSpace=wrap;html=1;aspect=fixed;strokeWidth=2;fillColor=#b1ddf0;strokeColor=#10739e;" vertex="1" parent="1">
          <mxGeometry x="281.5" y="188.5" width="20" height="20" as="geometry" />
        </mxCell>
        <mxCell id="eKCBTj_nnN3iUb_JfraB-91" value="&lt;font style=&quot;font-size: 14px; color: rgb(0, 102, 102);&quot; face=&quot;Tahoma&quot;&gt;...&lt;/font&gt;" style="text;html=1;align=center;verticalAlign=middle;resizable=0;points=[];autosize=1;strokeColor=none;fillColor=none;" vertex="1" parent="1">
          <mxGeometry x="292.5" y="180.5" width="40" height="30" as="geometry" />
        </mxCell>
        <mxCell id="eKCBTj_nnN3iUb_JfraB-100" value="" style="html=1;shadow=0;dashed=0;align=center;verticalAlign=middle;shape=mxgraph.arrows2.arrow;dy=0.54;dx=7.25;notch=0;strokeWidth=2;fillColor=#fad7ac;strokeColor=#b46504;rotation=91;" vertex="1" parent="1">
          <mxGeometry x="264.32000000000005" y="175" width="17.18" height="13.5" as="geometry" />
        </mxCell>
        <mxCell id="eKCBTj_nnN3iUb_JfraB-132" value="" style="group;strokeWidth=3;dashed=1;shadow=1;rounded=0;" vertex="1" connectable="0" parent="1">
          <mxGeometry x="110" y="55" width="147" height="40" as="geometry" />
        </mxCell>
        <mxCell id="eKCBTj_nnN3iUb_JfraB-133" value="" style="shape=note;whiteSpace=wrap;html=1;backgroundOutline=1;darkOpacity=0.05;strokeColor=#9673a6;strokeWidth=2;fillColor=light-dark(#faf5ff, #392f3f);shadow=1;size=15;" vertex="1" parent="eKCBTj_nnN3iUb_JfraB-132">
          <mxGeometry x="0.9234615384615384" width="145.13423076923078" height="39.25925925925926" as="geometry" />
        </mxCell>
        <mxCell id="eKCBTj_nnN3iUb_JfraB-134" value="&lt;span style=&quot;font-style: normal; font-variant-ligatures: normal; font-variant-caps: normal; letter-spacing: normal; orphans: 2; text-align: left; text-indent: 0px; text-transform: none; widows: 2; word-spacing: 0px; -webkit-text-stroke-width: 0px; white-space: nowrap; text-decoration-thickness: initial; text-decoration-style: initial; text-decoration-color: initial; float: none; display: inline !important;&quot;&gt;&lt;font style=&quot;color: rgb(76, 0, 153); font-size: 14px;&quot; face=&quot;Courier New&quot;&gt;&lt;b style=&quot;&quot;&gt;Constraint&lt;/b&gt;&lt;/font&gt;&lt;/span&gt;" style="text;whiteSpace=wrap;html=1;shadow=1;" vertex="1" parent="eKCBTj_nnN3iUb_JfraB-132">
          <mxGeometry x="23.369999999999997" y="-3.5555555555555554" width="100.26" height="23.777777777777775" as="geometry" />
        </mxCell>
        <mxCell id="eKCBTj_nnN3iUb_JfraB-137" value="&lt;div style=&quot;forced-color-adjust: none; line-height: 90%;&quot;&gt;&lt;font style=&quot;forced-color-adjust: none;&quot;&gt;&lt;b style=&quot;forced-color-adjust: none;&quot;&gt;&lt;span style=&quot;font-family: &amp;quot;Courier New&amp;quot;; font-size: 13px; forced-color-adjust: none; background-color: transparent; color: light-dark(rgb(0, 0, 0), rgb(255, 255, 255)); line-height: 90%;&quot;&gt;0 &amp;lt;&amp;nbsp;&lt;/span&gt;&lt;/b&gt;&lt;/font&gt;&lt;b style=&quot;background-color: transparent; color: light-dark(rgb(0, 0, 0), rgb(255, 255, 255));&quot;&gt;&lt;span style=&quot;font-family: &amp;quot;Courier New&amp;quot;; font-size: 13px; background-color: transparent; color: light-dark(rgb(0, 0, 0), rgb(255, 255, 255)); line-height: 90%;&quot;&gt;w&lt;/span&gt;&lt;sub style=&quot;background-color: transparent; color: light-dark(rgb(0, 0, 0), rgb(255, 255, 255)); line-height: 90%;&quot;&gt;&lt;font style=&quot;font-size: 8px; line-height: 90%;&quot;&gt;[2]&lt;/font&gt;&lt;/sub&gt;&lt;/b&gt;&lt;b style=&quot;background-color: transparent; color: light-dark(rgb(0, 0, 0), rgb(255, 255, 255));&quot;&gt;&lt;sub style=&quot;font-family: &amp;quot;Courier New&amp;quot;; font-size: 13px; background-color: transparent; color: light-dark(rgb(0, 0, 0), rgb(255, 255, 255)); line-height: 90%;&quot;&gt;&amp;nbsp;&lt;/sub&gt;&lt;span style=&quot;font-family: &amp;quot;Courier New&amp;quot;; font-size: 13px; background-color: transparent; color: light-dark(rgb(0, 0, 0), rgb(255, 255, 255)); line-height: 90%;&quot;&gt;- w&lt;/span&gt;&lt;sub style=&quot;background-color: transparent; color: light-dark(rgb(0, 0, 0), rgb(255, 255, 255)); line-height: 90%;&quot;&gt;&lt;font style=&quot;font-size: 8px; line-height: 90%;&quot;&gt;[1]&lt;/font&gt;&lt;span style=&quot;font-family: &amp;quot;Courier New&amp;quot;; font-size: 13px; line-height: 90%;&quot;&gt;&amp;nbsp;&lt;/span&gt;&lt;/sub&gt;&lt;span style=&quot;font-family: &amp;quot;Courier New&amp;quot;; font-size: 13px; background-color: transparent; color: light-dark(rgb(0, 0, 0), rgb(255, 255, 255)); line-height: 90%;&quot;&gt;&amp;lt; 2&lt;/span&gt;&lt;/b&gt;&lt;/div&gt;" style="text;whiteSpace=wrap;html=1;" vertex="1" parent="eKCBTj_nnN3iUb_JfraB-132">
          <mxGeometry x="7.192307692307661" y="13.258937198067633" width="126.44826923076923" height="22.608695652173914" as="geometry" />
        </mxCell>
        <mxCell id="eKCBTj_nnN3iUb_JfraB-138" value="" style="group;strokeWidth=3;dashed=1;shadow=1;rounded=0;" vertex="1" connectable="0" parent="1">
          <mxGeometry x="276" y="56" width="158" height="40" as="geometry" />
        </mxCell>
        <mxCell id="eKCBTj_nnN3iUb_JfraB-139" value="" style="shape=note;whiteSpace=wrap;html=1;backgroundOutline=1;darkOpacity=0.05;strokeColor=#9673a6;strokeWidth=2;fillColor=light-dark(#faf5ff, #392f3f);shadow=1;size=14;" vertex="1" parent="eKCBTj_nnN3iUb_JfraB-138">
          <mxGeometry x="5" width="153" height="39.772549019607844" as="geometry" />
        </mxCell>
        <mxCell id="eKCBTj_nnN3iUb_JfraB-142" value="&lt;div style=&quot;forced-color-adjust: none; line-height: 13px;&quot;&gt;&lt;span style=&quot;font-weight: bold; font-size: 13px; font-family: &amp;quot;Courier New&amp;quot;; background-color: transparent; color: light-dark(rgb(0, 0, 0), rgb(255, 255, 255));&quot;&gt;1 &amp;lt;&amp;nbsp;&lt;/span&gt;&lt;b style=&quot;background-color: transparent; color: light-dark(rgb(0, 0, 0), rgb(255, 255, 255));&quot;&gt;&lt;span style=&quot;font-family: &amp;quot;Courier New&amp;quot;; font-size: 13px; background-color: transparent; color: light-dark(rgb(0, 0, 0), rgb(255, 255, 255)); line-height: 11.7px;&quot;&gt;w&lt;/span&gt;&lt;sub style=&quot;background-color: transparent; color: light-dark(rgb(0, 0, 0), rgb(255, 255, 255)); line-height: 9px;&quot;&gt;&lt;font style=&quot;font-size: 8px; line-height: 7.2px;&quot;&gt;[n]&lt;/font&gt;&lt;/sub&gt;&lt;/b&gt;&lt;sub style=&quot;background-color: transparent; color: light-dark(rgb(0, 0, 0), rgb(255, 255, 255)); font-weight: bold; font-family: &amp;quot;Courier New&amp;quot;; line-height: 14.0833px;&quot;&gt;&amp;nbsp;&lt;/sub&gt;&lt;span style=&quot;background-color: transparent; color: light-dark(rgb(0, 0, 0), rgb(255, 255, 255)); font-weight: bold; font-size: 13px; font-family: &amp;quot;Courier New&amp;quot;;&quot;&gt;-&amp;nbsp;&lt;/span&gt;&lt;b style=&quot;background-color: transparent; color: light-dark(rgb(0, 0, 0), rgb(255, 255, 255));&quot;&gt;&lt;span style=&quot;font-family: &amp;quot;Courier New&amp;quot;; font-size: 13px; background-color: transparent; color: light-dark(rgb(0, 0, 0), rgb(255, 255, 255)); line-height: 11.7px;&quot;&gt;w&lt;/span&gt;&lt;sub style=&quot;background-color: transparent; color: light-dark(rgb(0, 0, 0), rgb(255, 255, 255)); line-height: 9px;&quot;&gt;&lt;font style=&quot;font-size: 8px; line-height: 7.2px;&quot;&gt;[n-1]&lt;/font&gt;&lt;/sub&gt;&lt;/b&gt;&lt;sub style=&quot;background-color: transparent; color: light-dark(rgb(0, 0, 0), rgb(255, 255, 255)); font-weight: bold; font-family: &amp;quot;Courier New&amp;quot;; line-height: 14.0833px;&quot;&gt;&amp;nbsp;&lt;/sub&gt;&lt;span style=&quot;background-color: transparent; color: light-dark(rgb(0, 0, 0), rgb(255, 255, 255)); font-weight: bold; font-size: 13px; font-family: &amp;quot;Courier New&amp;quot;;&quot;&gt;&amp;lt; 9&lt;/span&gt;&lt;/div&gt;&lt;font face=&quot;Courier New&quot; style=&quot;forced-color-adjust: none; line-height: 16.9px; font-size: 13px;&quot;&gt;&lt;b style=&quot;forced-color-adjust: none;&quot;&gt;&lt;div style=&quot;forced-color-adjust: none;&quot;&gt;&lt;br style=&quot;forced-color-adjust: none; color: rgb(0, 0, 0); font-family: &amp;quot;Courier New&amp;quot;; font-size: 13px; font-style: normal; font-variant-ligatures: normal; font-variant-caps: normal; font-weight: 700; letter-spacing: normal; orphans: 2; text-align: left; text-indent: 0px; text-transform: none; widows: 2; word-spacing: 0px; -webkit-text-stroke-width: 0px; white-space: nowrap; background-color: rgb(251, 251, 251); text-decoration-thickness: initial; text-decoration-style: initial; text-decoration-color: initial;&quot;&gt;&lt;/div&gt;&lt;/b&gt;&lt;/font&gt;" style="text;whiteSpace=wrap;html=1;" vertex="1" parent="eKCBTj_nnN3iUb_JfraB-138">
          <mxGeometry x="12.04" y="13.35" width="135.91" height="17.31" as="geometry" />
        </mxCell>
        <mxCell id="eKCBTj_nnN3iUb_JfraB-144" value="" style="curved=1;endArrow=openThin;html=1;rounded=0;strokeWidth=2;endFill=0;fillColor=#fad7ac;strokeColor=#b46504;exitX=0;exitY=0.5;exitDx=0;exitDy=0;" edge="1" parent="1" source="eKCBTj_nnN3iUb_JfraB-137">
          <mxGeometry width="50" height="50" relative="1" as="geometry">
            <mxPoint x="111" y="78" as="sourcePoint" />
            <mxPoint x="118" y="111" as="targetPoint" />
            <Array as="points">
              <mxPoint x="100" y="88" />
              <mxPoint x="97" y="102" />
              <mxPoint x="106" y="109" />
            </Array>
          </mxGeometry>
        </mxCell>
        <mxCell id="eKCBTj_nnN3iUb_JfraB-145" value="" style="shape=curlyBracket;whiteSpace=wrap;html=1;rounded=1;flipH=1;labelPosition=right;verticalLabelPosition=middle;align=left;verticalAlign=middle;strokeWidth=2;fillColor=#fad9d5;strokeColor=#ae4132;rotation=-90;" vertex="1" parent="1">
          <mxGeometry x="132" y="104.5" width="10" height="27" as="geometry" />
        </mxCell>
        <mxCell id="eKCBTj_nnN3iUb_JfraB-147" value="&lt;font style=&quot;font-size: 9px;&quot; face=&quot;Times New Roman&quot;&gt;(0, 2)&lt;/font&gt;" style="text;html=1;align=center;verticalAlign=middle;resizable=0;points=[];autosize=1;strokeColor=none;fillColor=none;" vertex="1" parent="1">
          <mxGeometry x="118" y="92" width="38" height="26" as="geometry" />
        </mxCell>
        <mxCell id="eKCBTj_nnN3iUb_JfraB-148" value="" style="shape=curlyBracket;whiteSpace=wrap;html=1;rounded=1;flipH=1;labelPosition=right;verticalLabelPosition=middle;align=left;verticalAlign=middle;strokeWidth=2;fillColor=#fad9d5;strokeColor=#ae4132;rotation=-90;" vertex="1" parent="1">
          <mxGeometry x="403" y="105.5" width="10" height="27" as="geometry" />
        </mxCell>
        <mxCell id="eKCBTj_nnN3iUb_JfraB-149" value="&lt;font style=&quot;font-size: 9px;&quot; face=&quot;Times New Roman&quot;&gt;(1, 9)&lt;/font&gt;" style="text;html=1;align=center;verticalAlign=middle;resizable=0;points=[];autosize=1;strokeColor=none;fillColor=none;" vertex="1" parent="1">
          <mxGeometry x="388" y="93" width="38" height="26" as="geometry" />
        </mxCell>
        <mxCell id="eKCBTj_nnN3iUb_JfraB-150" value="" style="curved=1;endArrow=openThin;html=1;rounded=0;strokeWidth=2;endFill=0;fillColor=#fad7ac;strokeColor=#b46504;exitX=0.975;exitY=0.581;exitDx=0;exitDy=0;exitPerimeter=0;entryX=1.045;entryY=0.724;entryDx=0;entryDy=0;entryPerimeter=0;" edge="1" parent="1" source="eKCBTj_nnN3iUb_JfraB-142" target="eKCBTj_nnN3iUb_JfraB-149">
          <mxGeometry width="50" height="50" relative="1" as="geometry">
            <mxPoint x="377" y="86" as="sourcePoint" />
            <mxPoint x="435" y="115" as="targetPoint" />
            <Array as="points">
              <mxPoint x="449" y="84" />
              <mxPoint x="453" y="107" />
            </Array>
          </mxGeometry>
        </mxCell>
        <mxCell id="eKCBTj_nnN3iUb_JfraB-153" value="&lt;div style=&quot;text-align: left;&quot;&gt;&lt;span style=&quot;background-color: transparent; color: light-dark(rgb(0, 0, 0), rgb(255, 255, 255)); text-wrap-mode: nowrap;&quot;&gt;&lt;font face=&quot;Courier New&quot;&gt;&lt;b&gt;n&lt;/b&gt;&lt;/font&gt;&lt;/span&gt;&lt;/div&gt;" style="ellipse;whiteSpace=wrap;html=1;aspect=fixed;strokeWidth=2;fillColor=#b1ddf0;strokeColor=#10739e;" vertex="1" parent="1">
          <mxGeometry x="380" y="188.5" width="20" height="20" as="geometry" />
        </mxCell>
        <mxCell id="eKCBTj_nnN3iUb_JfraB-156" style="rounded=0;orthogonalLoop=1;jettySize=auto;html=1;endArrow=openThin;endFill=0;strokeColor=#82b366;strokeWidth=2;fillColor=#d5e8d4;endSize=3;entryX=0;entryY=0.5;entryDx=0;entryDy=0;exitX=1;exitY=0.5;exitDx=0;exitDy=0;" edge="1" parent="1" target="eKCBTj_nnN3iUb_JfraB-159">
          <mxGeometry relative="1" as="geometry">
            <mxPoint x="400" y="136.5" as="sourcePoint" />
            <mxPoint x="431.0882352941177" y="146.63424657534233" as="targetPoint" />
          </mxGeometry>
        </mxCell>
        <mxCell id="eKCBTj_nnN3iUb_JfraB-157" style="rounded=0;orthogonalLoop=1;jettySize=auto;html=1;endArrow=openThin;endFill=0;strokeColor=#82b366;strokeWidth=2;fillColor=#d5e8d4;endSize=3;entryX=0;entryY=0.5;entryDx=0;entryDy=0;exitX=1;exitY=0.5;exitDx=0;exitDy=0;" edge="1" parent="1" target="eKCBTj_nnN3iUb_JfraB-158">
          <mxGeometry relative="1" as="geometry">
            <mxPoint x="361.5" y="136.5" as="sourcePoint" />
            <mxPoint x="392.5882352941177" y="146.63424657534233" as="targetPoint" />
          </mxGeometry>
        </mxCell>
        <mxCell id="eKCBTj_nnN3iUb_JfraB-158" value="&lt;div style=&quot;text-align: left;&quot;&gt;&lt;span style=&quot;background-color: transparent; color: light-dark(rgb(0, 0, 0), rgb(255, 255, 255)); text-wrap-mode: nowrap;&quot;&gt;&lt;font style=&quot;font-size: 10px;&quot; face=&quot;Courier New&quot;&gt;&lt;b style=&quot;&quot;&gt;n-1&lt;/b&gt;&lt;/font&gt;&lt;/span&gt;&lt;/div&gt;" style="ellipse;whiteSpace=wrap;html=1;aspect=fixed;strokeWidth=2;fillColor=#b1ddf0;strokeColor=#10739e;" vertex="1" parent="1">
          <mxGeometry x="379.5" y="126.5" width="20" height="20" as="geometry" />
        </mxCell>
        <mxCell id="eKCBTj_nnN3iUb_JfraB-159" value="&lt;div style=&quot;text-align: left;&quot;&gt;&lt;span style=&quot;background-color: transparent; color: light-dark(rgb(0, 0, 0), rgb(255, 255, 255)); text-wrap-mode: nowrap;&quot;&gt;&lt;font face=&quot;Courier New&quot;&gt;&lt;b&gt;n&lt;/b&gt;&lt;/font&gt;&lt;/span&gt;&lt;/div&gt;" style="ellipse;whiteSpace=wrap;html=1;aspect=fixed;strokeWidth=2;fillColor=#b1ddf0;strokeColor=#10739e;" vertex="1" parent="1">
          <mxGeometry x="418" y="126.5" width="20" height="20" as="geometry" />
        </mxCell>
        <mxCell id="eKCBTj_nnN3iUb_JfraB-243" style="rounded=0;orthogonalLoop=1;jettySize=auto;html=1;endArrow=openThin;endFill=0;strokeColor=#82b366;strokeWidth=3;fillColor=#d5e8d4;endSize=3;entryX=0;entryY=0.5;entryDx=0;entryDy=0;exitX=1;exitY=0.5;exitDx=0;exitDy=0;" edge="1" parent="1" source="eKCBTj_nnN3iUb_JfraB-246">
          <mxGeometry relative="1" as="geometry">
            <mxPoint x="182.56" y="390.88" as="sourcePoint" />
            <mxPoint x="201.5" y="390.7" as="targetPoint" />
          </mxGeometry>
        </mxCell>
        <mxCell id="eKCBTj_nnN3iUb_JfraB-244" style="rounded=0;orthogonalLoop=1;jettySize=auto;html=1;endArrow=openThin;endFill=0;strokeColor=#82b366;strokeWidth=3;fillColor=#d5e8d4;endSize=3;entryX=0;entryY=0.5;entryDx=0;entryDy=0;exitX=1;exitY=0.5;exitDx=0;exitDy=0;" edge="1" parent="1" source="eKCBTj_nnN3iUb_JfraB-245" target="eKCBTj_nnN3iUb_JfraB-246">
          <mxGeometry relative="1" as="geometry">
            <mxPoint x="150.5" y="389.7" as="sourcePoint" />
            <mxPoint x="181.58823529411768" y="399.8342465753423" as="targetPoint" />
          </mxGeometry>
        </mxCell>
        <mxCell id="eKCBTj_nnN3iUb_JfraB-245" value="" style="ellipse;whiteSpace=wrap;html=1;aspect=fixed;strokeWidth=3;fillColor=#b1ddf0;strokeColor=#10739e;" vertex="1" parent="1">
          <mxGeometry x="122.5" y="379.7" width="20" height="20" as="geometry" />
        </mxCell>
        <mxCell id="eKCBTj_nnN3iUb_JfraB-246" value="" style="ellipse;whiteSpace=wrap;html=1;aspect=fixed;strokeWidth=3;fillColor=#b1ddf0;strokeColor=#10739e;" vertex="1" parent="1">
          <mxGeometry x="159.5" y="379.7" width="20" height="20" as="geometry" />
        </mxCell>
        <mxCell id="eKCBTj_nnN3iUb_JfraB-247" style="rounded=0;orthogonalLoop=1;jettySize=auto;html=1;endArrow=openThin;endFill=0;strokeColor=#82b366;strokeWidth=3;fillColor=#d5e8d4;endSize=3;entryX=-0.062;entryY=0.694;entryDx=0;entryDy=0;entryPerimeter=0;" edge="1" parent="1" target="eKCBTj_nnN3iUb_JfraB-248">
          <mxGeometry relative="1" as="geometry">
            <mxPoint x="210.18" y="377.3" as="sourcePoint" />
            <mxPoint x="261" y="380.74999999999994" as="targetPoint" />
          </mxGeometry>
        </mxCell>
        <mxCell id="eKCBTj_nnN3iUb_JfraB-248" value="" style="ellipse;whiteSpace=wrap;html=1;aspect=fixed;strokeWidth=3;fillColor=#b1ddf0;strokeColor=#10739e;" vertex="1" parent="1">
          <mxGeometry x="228.5" y="352.84999999999997" width="20" height="20" as="geometry" />
        </mxCell>
        <mxCell id="eKCBTj_nnN3iUb_JfraB-249" value="&lt;font style=&quot;font-size: 14px; color: rgb(0, 102, 102);&quot; face=&quot;Tahoma&quot;&gt;...&lt;/font&gt;" style="text;html=1;align=center;verticalAlign=middle;resizable=0;points=[];autosize=1;strokeColor=none;fillColor=none;strokeWidth=3;" vertex="1" parent="1">
          <mxGeometry x="187.5" y="371.7" width="40" height="30" as="geometry" />
        </mxCell>
        <mxCell id="eKCBTj_nnN3iUb_JfraB-252" value="&lt;font style=&quot;font-size: 14px; color: rgb(0, 102, 102);&quot; face=&quot;Tahoma&quot;&gt;...&lt;/font&gt;" style="text;html=1;align=center;verticalAlign=middle;resizable=0;points=[];autosize=1;strokeColor=none;fillColor=none;strokeWidth=3;" vertex="1" parent="1">
          <mxGeometry x="250" y="371.7" width="40" height="30" as="geometry" />
        </mxCell>
        <mxCell id="eKCBTj_nnN3iUb_JfraB-253" value="&lt;font style=&quot;font-size: 14px; color: rgb(0, 102, 102);&quot; face=&quot;Tahoma&quot;&gt;...&lt;/font&gt;" style="text;html=1;align=center;verticalAlign=middle;resizable=0;points=[];autosize=1;strokeColor=none;fillColor=none;strokeWidth=3;" vertex="1" parent="1">
          <mxGeometry x="419.5" y="374.8" width="40" height="30" as="geometry" />
        </mxCell>
        <mxCell id="eKCBTj_nnN3iUb_JfraB-279" style="rounded=0;orthogonalLoop=1;jettySize=auto;html=1;endArrow=openThin;endFill=0;strokeColor=#82b366;strokeWidth=3;fillColor=#d5e8d4;endSize=3;entryX=0;entryY=0.5;entryDx=0;entryDy=0;exitX=1;exitY=0.5;exitDx=0;exitDy=0;" edge="1" parent="1" target="eKCBTj_nnN3iUb_JfraB-282">
          <mxGeometry relative="1" as="geometry">
            <mxPoint x="489.5" y="393.8" as="sourcePoint" />
            <mxPoint x="520.5882352941177" y="403.93424657534234" as="targetPoint" />
          </mxGeometry>
        </mxCell>
        <mxCell id="eKCBTj_nnN3iUb_JfraB-280" style="rounded=0;orthogonalLoop=1;jettySize=auto;html=1;endArrow=openThin;endFill=0;strokeColor=#82b366;strokeWidth=3;fillColor=#d5e8d4;endSize=3;entryX=0;entryY=0.5;entryDx=0;entryDy=0;exitX=1;exitY=0.5;exitDx=0;exitDy=0;" edge="1" parent="1" target="eKCBTj_nnN3iUb_JfraB-281">
          <mxGeometry relative="1" as="geometry">
            <mxPoint x="451" y="393.8" as="sourcePoint" />
            <mxPoint x="482.0882352941177" y="403.93424657534234" as="targetPoint" />
          </mxGeometry>
        </mxCell>
        <mxCell id="eKCBTj_nnN3iUb_JfraB-281" value="" style="ellipse;whiteSpace=wrap;html=1;aspect=fixed;strokeWidth=3;fillColor=#b1ddf0;strokeColor=#10739e;" vertex="1" parent="1">
          <mxGeometry x="469" y="383.8" width="20" height="20" as="geometry" />
        </mxCell>
        <mxCell id="eKCBTj_nnN3iUb_JfraB-282" value="" style="ellipse;whiteSpace=wrap;html=1;aspect=fixed;strokeWidth=3;fillColor=#b1ddf0;strokeColor=#10739e;" vertex="1" parent="1">
          <mxGeometry x="507.5" y="383.8" width="20" height="20" as="geometry" />
        </mxCell>
        <mxCell id="eKCBTj_nnN3iUb_JfraB-324" style="rounded=0;orthogonalLoop=1;jettySize=auto;html=1;endArrow=openThin;endFill=0;strokeColor=#82b366;strokeWidth=3;fillColor=#d5e8d4;endSize=3;entryX=0.5;entryY=1;entryDx=0;entryDy=0;" edge="1" parent="1">
          <mxGeometry relative="1" as="geometry">
            <mxPoint x="181" y="417.3" as="sourcePoint" />
            <mxPoint x="199" y="402.59000000000003" as="targetPoint" />
          </mxGeometry>
        </mxCell>
        <mxCell id="eKCBTj_nnN3iUb_JfraB-325" value="" style="ellipse;whiteSpace=wrap;html=1;aspect=fixed;strokeWidth=3;fillColor=#b1ddf0;strokeColor=#10739e;" vertex="1" parent="1">
          <mxGeometry x="162.5" y="410" width="20" height="20" as="geometry" />
        </mxCell>
        <mxCell id="eKCBTj_nnN3iUb_JfraB-328" value="" style="ellipse;whiteSpace=wrap;html=1;aspect=fixed;strokeWidth=3;fillColor=#b1ddf0;strokeColor=#10739e;" vertex="1" parent="1">
          <mxGeometry x="156" y="338" width="20" height="20" as="geometry" />
        </mxCell>
        <mxCell id="eKCBTj_nnN3iUb_JfraB-333" value="" style="ellipse;whiteSpace=wrap;html=1;aspect=fixed;strokeWidth=3;fillColor=#b1ddf0;strokeColor=#10739e;" vertex="1" parent="1">
          <mxGeometry x="286.6" y="343.3" width="20" height="20" as="geometry" />
        </mxCell>
        <mxCell id="eKCBTj_nnN3iUb_JfraB-334" style="rounded=0;orthogonalLoop=1;jettySize=auto;html=1;endArrow=openThin;endFill=0;strokeColor=#82b366;strokeWidth=3;fillColor=#d5e8d4;endSize=3;exitX=1;exitY=0;exitDx=0;exitDy=0;entryX=0.384;entryY=0.982;entryDx=0;entryDy=0;entryPerimeter=0;" edge="1" parent="1" source="eKCBTj_nnN3iUb_JfraB-335" target="eKCBTj_nnN3iUb_JfraB-252">
          <mxGeometry relative="1" as="geometry">
            <mxPoint x="270" y="446.49999999999994" as="sourcePoint" />
            <mxPoint x="267.5" y="399.7" as="targetPoint" />
          </mxGeometry>
        </mxCell>
        <mxCell id="eKCBTj_nnN3iUb_JfraB-335" value="" style="ellipse;whiteSpace=wrap;html=1;aspect=fixed;strokeWidth=3;fillColor=#b1ddf0;strokeColor=#10739e;" vertex="1" parent="1">
          <mxGeometry x="231" y="412.3" width="20" height="20" as="geometry" />
        </mxCell>
        <mxCell id="eKCBTj_nnN3iUb_JfraB-336" style="rounded=0;orthogonalLoop=1;jettySize=auto;html=1;endArrow=openThin;endFill=0;strokeColor=#82b366;strokeWidth=3;fillColor=#d5e8d4;endSize=3;" edge="1" parent="1">
          <mxGeometry relative="1" as="geometry">
            <mxPoint x="279.1" y="376.35" as="sourcePoint" />
            <mxPoint x="289.1" y="363.3" as="targetPoint" />
          </mxGeometry>
        </mxCell>
        <mxCell id="eKCBTj_nnN3iUb_JfraB-337" style="rounded=0;orthogonalLoop=1;jettySize=auto;html=1;endArrow=openThin;endFill=0;strokeColor=#82b366;strokeWidth=3;fillColor=#d5e8d4;endSize=3;exitX=1;exitY=1;exitDx=0;exitDy=0;" edge="1" parent="1">
          <mxGeometry relative="1" as="geometry">
            <mxPoint x="212" y="406.3" as="sourcePoint" />
            <mxPoint x="229" y="418.8" as="targetPoint" />
          </mxGeometry>
        </mxCell>
        <mxCell id="eKCBTj_nnN3iUb_JfraB-344" style="rounded=0;orthogonalLoop=1;jettySize=auto;html=1;endArrow=openThin;endFill=0;strokeColor=#82b366;strokeWidth=3;fillColor=#d5e8d4;endSize=3;" edge="1" parent="1">
          <mxGeometry relative="1" as="geometry">
            <mxPoint x="331.75" y="362.8" as="sourcePoint" />
            <mxPoint x="344.75" y="377.3" as="targetPoint" />
          </mxGeometry>
        </mxCell>
        <mxCell id="eKCBTj_nnN3iUb_JfraB-345" value="" style="ellipse;whiteSpace=wrap;html=1;aspect=fixed;strokeWidth=3;fillColor=#b1ddf0;strokeColor=#10739e;" vertex="1" parent="1">
          <mxGeometry x="315.25" y="344.3" width="20" height="20" as="geometry" />
        </mxCell>
        <mxCell id="eKCBTj_nnN3iUb_JfraB-353" value="" style="ellipse;whiteSpace=wrap;html=1;aspect=fixed;strokeWidth=3;fillColor=#b1ddf0;strokeColor=#10739e;" vertex="1" parent="1">
          <mxGeometry x="485" y="350.6" width="20" height="20" as="geometry" />
        </mxCell>
        <mxCell id="eKCBTj_nnN3iUb_JfraB-355" style="rounded=0;orthogonalLoop=1;jettySize=auto;html=1;endArrow=openThin;endFill=0;strokeColor=#82b366;strokeWidth=3;fillColor=#d5e8d4;endSize=3;exitX=1;exitY=0;exitDx=0;exitDy=0;entryX=0.384;entryY=0.982;entryDx=0;entryDy=0;entryPerimeter=0;" edge="1" parent="1" source="eKCBTj_nnN3iUb_JfraB-356">
          <mxGeometry relative="1" as="geometry">
            <mxPoint x="523" y="450.29999999999995" as="sourcePoint" />
            <mxPoint x="518" y="404.8" as="targetPoint" />
          </mxGeometry>
        </mxCell>
        <mxCell id="eKCBTj_nnN3iUb_JfraB-356" value="" style="ellipse;whiteSpace=wrap;html=1;aspect=fixed;strokeWidth=3;fillColor=#b1ddf0;strokeColor=#10739e;" vertex="1" parent="1">
          <mxGeometry x="489" y="416.1" width="20" height="20" as="geometry" />
        </mxCell>
        <mxCell id="eKCBTj_nnN3iUb_JfraB-359" style="rounded=0;orthogonalLoop=1;jettySize=auto;html=1;endArrow=openThin;endFill=0;strokeColor=#82b366;strokeWidth=3;fillColor=#d5e8d4;endSize=3;entryX=0;entryY=0.5;entryDx=0;entryDy=0;" edge="1" parent="1" target="eKCBTj_nnN3iUb_JfraB-356">
          <mxGeometry relative="1" as="geometry">
            <mxPoint x="453" y="408" as="sourcePoint" />
            <mxPoint x="439" y="412.3" as="targetPoint" />
          </mxGeometry>
        </mxCell>
        <mxCell id="eKCBTj_nnN3iUb_JfraB-362" value="" style="group;strokeWidth=3;dashed=1;shadow=1;rounded=0;" vertex="1" connectable="0" parent="1">
          <mxGeometry x="85" y="254" width="147" height="62" as="geometry" />
        </mxCell>
        <mxCell id="eKCBTj_nnN3iUb_JfraB-365" value="&lt;div style=&quot;line-height: 130%;&quot;&gt;&lt;br&gt;&lt;/div&gt;" style="text;align=left;verticalAlign=top;rounded=0;horizontal=1;fontSize=10;html=1;strokeColor=none;shadow=1;" vertex="1" parent="eKCBTj_nnN3iUb_JfraB-362">
          <mxGeometry x="5.584150943396226" y="5.659322033898305" width="122.00075471698115" height="15.00169491525424" as="geometry" />
        </mxCell>
        <mxCell id="eKCBTj_nnN3iUb_JfraB-367" value="" style="group" vertex="1" connectable="0" parent="eKCBTj_nnN3iUb_JfraB-362">
          <mxGeometry x="22" y="-0.8833333333333337" width="117" height="62.88333333333333" as="geometry" />
        </mxCell>
        <mxCell id="eKCBTj_nnN3iUb_JfraB-363" value="" style="shape=note;whiteSpace=wrap;html=1;backgroundOutline=1;darkOpacity=0.05;strokeColor=#9673a6;strokeWidth=2;fillColor=light-dark(#faf5ff, #392f3f);shadow=1;size=15;" vertex="1" parent="eKCBTj_nnN3iUb_JfraB-367">
          <mxGeometry y="0.8833333333333337" width="117" height="62" as="geometry" />
        </mxCell>
        <mxCell id="eKCBTj_nnN3iUb_JfraB-364" value="&lt;span style=&quot;font-style: normal; font-variant-ligatures: normal; font-variant-caps: normal; letter-spacing: normal; orphans: 2; text-align: left; text-indent: 0px; text-transform: none; widows: 2; word-spacing: 0px; -webkit-text-stroke-width: 0px; white-space: nowrap; text-decoration-thickness: initial; text-decoration-style: initial; text-decoration-color: initial; float: none; display: inline !important;&quot;&gt;&lt;font style=&quot;color: rgb(76, 0, 153); font-size: 15px;&quot; face=&quot;Courier New&quot;&gt;&lt;b style=&quot;&quot;&gt;Constraint&lt;/b&gt;&lt;/font&gt;&lt;/span&gt;" style="text;whiteSpace=wrap;html=1;shadow=1;" vertex="1" parent="eKCBTj_nnN3iUb_JfraB-367">
          <mxGeometry x="5.737487461189396" width="71.63924050632912" height="6.543209876543212" as="geometry" />
        </mxCell>
        <mxCell id="eKCBTj_nnN3iUb_JfraB-366" value="&lt;div style=&quot;forced-color-adjust: none; line-height: 13px;&quot;&gt;&lt;font face=&quot;Courier New&quot; style=&quot;forced-color-adjust: none;&quot;&gt;&lt;b style=&quot;forced-color-adjust: none;&quot;&gt;&lt;span style=&quot;font-size: 13px; forced-color-adjust: none; background-color: transparent; color: light-dark(rgb(0, 0, 0), rgb(255, 255, 255));&quot;&gt;(e&lt;/span&gt;&lt;sub style=&quot;font-size: 13px; forced-color-adjust: none; background-color: transparent; color: light-dark(rgb(0, 0, 0), rgb(255, 255, 255)); line-height: 14.0833px;&quot;&gt;&amp;nbsp;&lt;/sub&gt;&lt;span style=&quot;forced-color-adjust: none; background-color: transparent; color: light-dark(rgb(0, 0, 0), rgb(255, 255, 255));&quot;&gt;&lt;span style=&quot;font-size: 13px;&quot;&gt;- e&#39;)&lt;/span&gt;&lt;/span&gt;&lt;/b&gt;&lt;/font&gt;&lt;span style=&quot;background-color: transparent;&quot;&gt;&lt;font style=&quot;font-size: 13px;&quot;&gt;&lt;b style=&quot;&quot;&gt;◦ &lt;font face=&quot;Courier New&quot;&gt;c&lt;/font&gt;&lt;/b&gt;&lt;/font&gt;&lt;/span&gt;&lt;/div&gt;&lt;div style=&quot;text-align: center; forced-color-adjust: none; line-height: 13px;&quot;&gt;&lt;span style=&quot;background-color: transparent;&quot;&gt;&lt;font style=&quot;font-size: 13px;&quot;&gt;&lt;b style=&quot;&quot;&gt;&lt;font face=&quot;Courier New&quot;&gt;...&lt;/font&gt;&lt;/b&gt;&lt;/font&gt;&lt;/span&gt;&lt;/div&gt;" style="text;whiteSpace=wrap;html=1;" vertex="1" parent="eKCBTj_nnN3iUb_JfraB-367">
          <mxGeometry x="5.740000000000002" y="18.883333333333333" width="89" height="25" as="geometry" />
        </mxCell>
        <mxCell id="eKCBTj_nnN3iUb_JfraB-368" value="" style="group" vertex="1" connectable="0" parent="1">
          <mxGeometry x="389" y="250" width="117" height="62.88333333333333" as="geometry" />
        </mxCell>
        <mxCell id="eKCBTj_nnN3iUb_JfraB-369" value="" style="shape=note;whiteSpace=wrap;html=1;backgroundOutline=1;darkOpacity=0.05;strokeColor=#9673a6;strokeWidth=2;fillColor=light-dark(#faf5ff, #392f3f);shadow=1;size=15;" vertex="1" parent="eKCBTj_nnN3iUb_JfraB-368">
          <mxGeometry y="0.8833333333333337" width="117" height="62" as="geometry" />
        </mxCell>
        <mxCell id="eKCBTj_nnN3iUb_JfraB-370" value="&lt;b style=&quot;color: rgb(76, 0, 153); font-family: &amp;quot;Courier New&amp;quot;; font-size: 15px; text-wrap-mode: nowrap;&quot;&gt;Property&lt;/b&gt;" style="text;whiteSpace=wrap;html=1;shadow=1;" vertex="1" parent="eKCBTj_nnN3iUb_JfraB-368">
          <mxGeometry x="14.417487461189396" width="71.63924050632912" height="6.543209876543212" as="geometry" />
        </mxCell>
        <mxCell id="eKCBTj_nnN3iUb_JfraB-371" value="&lt;div style=&quot;forced-color-adjust: none; line-height: 13px;&quot;&gt;&lt;font face=&quot;Courier New&quot; style=&quot;forced-color-adjust: none;&quot;&gt;&lt;b style=&quot;forced-color-adjust: none;&quot;&gt;&lt;span style=&quot;font-size: 13px; forced-color-adjust: none; background-color: transparent; color: light-dark(rgb(0, 0, 0), rgb(255, 255, 255));&quot;&gt;(e&lt;/span&gt;&lt;sub style=&quot;font-size: 13px; forced-color-adjust: none; background-color: transparent; color: light-dark(rgb(0, 0, 0), rgb(255, 255, 255)); line-height: 14.0833px;&quot;&gt;&amp;nbsp;&lt;/sub&gt;&lt;span style=&quot;forced-color-adjust: none; background-color: transparent; color: light-dark(rgb(0, 0, 0), rgb(255, 255, 255));&quot;&gt;&lt;span style=&quot;font-size: 13px;&quot;&gt;- e&#39;)&lt;/span&gt;&lt;/span&gt;&lt;/b&gt;&lt;/font&gt;&lt;span style=&quot;background-color: transparent;&quot;&gt;&lt;font style=&quot;font-size: 13px;&quot;&gt;&lt;b style=&quot;&quot;&gt;◦ &lt;font face=&quot;Courier New&quot;&gt;c&lt;/font&gt;&lt;/b&gt;&lt;/font&gt;&lt;/span&gt;&lt;/div&gt;&lt;div style=&quot;text-align: center; forced-color-adjust: none; line-height: 13px;&quot;&gt;&lt;span style=&quot;background-color: transparent;&quot;&gt;&lt;font style=&quot;font-size: 13px;&quot;&gt;&lt;b style=&quot;&quot;&gt;&lt;font face=&quot;Courier New&quot;&gt;...&lt;/font&gt;&lt;/b&gt;&lt;/font&gt;&lt;/span&gt;&lt;/div&gt;" style="text;whiteSpace=wrap;html=1;" vertex="1" parent="eKCBTj_nnN3iUb_JfraB-368">
          <mxGeometry x="5.740000000000002" y="18.883333333333333" width="89" height="25" as="geometry" />
        </mxCell>
        <mxCell id="eKCBTj_nnN3iUb_JfraB-375" style="rounded=0;orthogonalLoop=1;jettySize=auto;html=1;endArrow=openThin;endFill=0;strokeColor=#82b366;strokeWidth=3;fillColor=#d5e8d4;endSize=3;entryX=0;entryY=0.5;entryDx=0;entryDy=0;exitX=1;exitY=0.5;exitDx=0;exitDy=0;" edge="1" parent="1">
          <mxGeometry relative="1" as="geometry">
            <mxPoint x="245.6" y="389.95" as="sourcePoint" />
            <mxPoint x="263.6" y="390.45" as="targetPoint" />
          </mxGeometry>
        </mxCell>
        <mxCell id="eKCBTj_nnN3iUb_JfraB-376" value="" style="ellipse;whiteSpace=wrap;html=1;aspect=fixed;strokeWidth=3;fillColor=#b1ddf0;strokeColor=#10739e;" vertex="1" parent="1">
          <mxGeometry x="224" y="379.8" width="20" height="20" as="geometry" />
        </mxCell>
        <mxCell id="eKCBTj_nnN3iUb_JfraB-380" style="rounded=0;orthogonalLoop=1;jettySize=auto;html=1;endArrow=openThin;endFill=0;strokeColor=#82b366;strokeWidth=3;fillColor=#d5e8d4;endSize=3;entryX=0;entryY=0.5;entryDx=0;entryDy=0;exitX=1.023;exitY=0.226;exitDx=0;exitDy=0;exitPerimeter=0;" edge="1" parent="1" source="eKCBTj_nnN3iUb_JfraB-382">
          <mxGeometry relative="1" as="geometry">
            <mxPoint x="411.5" y="392.55" as="sourcePoint" />
            <mxPoint x="429.5" y="393.05" as="targetPoint" />
          </mxGeometry>
        </mxCell>
        <mxCell id="eKCBTj_nnN3iUb_JfraB-381" style="rounded=0;orthogonalLoop=1;jettySize=auto;html=1;endArrow=openThin;endFill=0;strokeColor=#82b366;strokeWidth=3;fillColor=#d5e8d4;endSize=3;entryX=0;entryY=0.5;entryDx=0;entryDy=0;exitX=1;exitY=0.5;exitDx=0;exitDy=0;" edge="1" parent="1" target="eKCBTj_nnN3iUb_JfraB-382">
          <mxGeometry relative="1" as="geometry">
            <mxPoint x="373" y="391.8" as="sourcePoint" />
            <mxPoint x="404.0882352941177" y="401.93424657534234" as="targetPoint" />
          </mxGeometry>
        </mxCell>
        <mxCell id="eKCBTj_nnN3iUb_JfraB-382" value="" style="ellipse;whiteSpace=wrap;html=1;aspect=fixed;strokeWidth=3;fillColor=#b1ddf0;strokeColor=#10739e;" vertex="1" parent="1">
          <mxGeometry x="390" y="398.1" width="20" height="20" as="geometry" />
        </mxCell>
        <mxCell id="eKCBTj_nnN3iUb_JfraB-400" style="rounded=0;orthogonalLoop=1;jettySize=auto;html=1;endArrow=openThin;endFill=0;strokeColor=#82b366;strokeWidth=3;fillColor=#d5e8d4;endSize=3;entryX=0;entryY=0.5;entryDx=0;entryDy=0;exitX=1;exitY=0.5;exitDx=0;exitDy=0;" edge="1" parent="1">
          <mxGeometry relative="1" as="geometry">
            <mxPoint x="322.5" y="390.55" as="sourcePoint" />
            <mxPoint x="340.5" y="391.05" as="targetPoint" />
          </mxGeometry>
        </mxCell>
        <mxCell id="eKCBTj_nnN3iUb_JfraB-401" style="rounded=0;orthogonalLoop=1;jettySize=auto;html=1;endArrow=openThin;endFill=0;strokeColor=#82b366;strokeWidth=3;fillColor=#d5e8d4;endSize=3;entryX=0;entryY=0.5;entryDx=0;entryDy=0;exitX=1;exitY=0.5;exitDx=0;exitDy=0;" edge="1" parent="1" target="eKCBTj_nnN3iUb_JfraB-402">
          <mxGeometry relative="1" as="geometry">
            <mxPoint x="284" y="389.8" as="sourcePoint" />
            <mxPoint x="315.0882352941177" y="399.93424657534234" as="targetPoint" />
          </mxGeometry>
        </mxCell>
        <mxCell id="eKCBTj_nnN3iUb_JfraB-402" value="" style="ellipse;whiteSpace=wrap;html=1;aspect=fixed;strokeWidth=3;fillColor=#b1ddf0;strokeColor=#10739e;" vertex="1" parent="1">
          <mxGeometry x="302" y="379.8" width="20" height="20" as="geometry" />
        </mxCell>
        <mxCell id="eKCBTj_nnN3iUb_JfraB-407" style="rounded=0;orthogonalLoop=1;jettySize=auto;html=1;endArrow=openThin;endFill=0;strokeColor=#82b366;strokeWidth=3;fillColor=#d5e8d4;endSize=3;exitX=0.97;exitY=0.185;exitDx=0;exitDy=0;exitPerimeter=0;" edge="1" parent="1" source="eKCBTj_nnN3iUb_JfraB-408">
          <mxGeometry relative="1" as="geometry">
            <mxPoint x="320" y="421" as="sourcePoint" />
            <mxPoint x="350" y="401" as="targetPoint" />
          </mxGeometry>
        </mxCell>
        <mxCell id="eKCBTj_nnN3iUb_JfraB-408" value="" style="ellipse;whiteSpace=wrap;html=1;aspect=fixed;strokeWidth=3;fillColor=#b1ddf0;strokeColor=#10739e;" vertex="1" parent="1">
          <mxGeometry x="294.6" y="412.3" width="20" height="20" as="geometry" />
        </mxCell>
        <mxCell id="eKCBTj_nnN3iUb_JfraB-409" style="rounded=0;orthogonalLoop=1;jettySize=auto;html=1;endArrow=openThin;endFill=0;strokeColor=#82b366;strokeWidth=3;fillColor=#d5e8d4;endSize=3;" edge="1" parent="1">
          <mxGeometry relative="1" as="geometry">
            <mxPoint x="279" y="405" as="sourcePoint" />
            <mxPoint x="293" y="416" as="targetPoint" />
          </mxGeometry>
        </mxCell>
        <mxCell id="eKCBTj_nnN3iUb_JfraB-412" value="&lt;font style=&quot;font-size: 14px; color: rgb(0, 102, 102);&quot; face=&quot;Tahoma&quot;&gt;...&lt;/font&gt;" style="text;html=1;align=center;verticalAlign=middle;resizable=0;points=[];autosize=1;strokeColor=none;fillColor=none;strokeWidth=3;" vertex="1" parent="1">
          <mxGeometry x="341.5" y="372.85" width="40" height="30" as="geometry" />
        </mxCell>
        <mxCell id="eKCBTj_nnN3iUb_JfraB-413" value="&lt;font style=&quot;font-size: 14px; color: rgb(0, 102, 102);&quot; face=&quot;Tahoma&quot;&gt;...&lt;/font&gt;" style="text;html=1;align=center;verticalAlign=middle;resizable=0;points=[];autosize=1;strokeColor=none;fillColor=none;strokeWidth=3;" vertex="1" parent="1">
          <mxGeometry x="290.6" y="388.09999999999997" width="40" height="30" as="geometry" />
        </mxCell>
        <mxCell id="eKCBTj_nnN3iUb_JfraB-414" value="&lt;font style=&quot;font-size: 14px; color: rgb(0, 102, 102);&quot; face=&quot;Tahoma&quot;&gt;...&lt;/font&gt;" style="text;html=1;align=center;verticalAlign=middle;resizable=0;points=[];autosize=1;strokeColor=none;fillColor=none;strokeWidth=3;" vertex="1" parent="1">
          <mxGeometry x="292.5" y="350.59999999999997" width="40" height="30" as="geometry" />
        </mxCell>
        <mxCell id="eKCBTj_nnN3iUb_JfraB-415" value="" style="curved=1;endArrow=openThin;html=1;rounded=0;strokeWidth=2;endFill=0;fillColor=#fad7ac;strokeColor=#b46504;exitX=0;exitY=0.75;exitDx=0;exitDy=0;" edge="1" parent="1" source="eKCBTj_nnN3iUb_JfraB-366">
          <mxGeometry width="50" height="50" relative="1" as="geometry">
            <mxPoint x="109" y="319.15000000000003" as="sourcePoint" />
            <mxPoint x="132" y="367" as="targetPoint" />
            <Array as="points">
              <mxPoint x="83" y="318" />
              <mxPoint x="92" y="349" />
            </Array>
          </mxGeometry>
        </mxCell>
        <mxCell id="eKCBTj_nnN3iUb_JfraB-416" value="" style="shape=curlyBracket;whiteSpace=wrap;html=1;rounded=1;flipH=1;labelPosition=right;verticalLabelPosition=middle;align=left;verticalAlign=middle;strokeWidth=2;fillColor=#fad9d5;strokeColor=#ae4132;rotation=-90;" vertex="1" parent="1">
          <mxGeometry x="145" y="361.8" width="10" height="22" as="geometry" />
        </mxCell>
        <mxCell id="eKCBTj_nnN3iUb_JfraB-417" value="&lt;font face=&quot;Helvetica&quot; style=&quot;font-size: 9px;&quot;&gt;c&lt;/font&gt;" style="text;html=1;align=center;verticalAlign=middle;resizable=0;points=[];autosize=1;strokeColor=none;fillColor=none;" vertex="1" parent="1">
          <mxGeometry x="137.5" y="347.7" width="23" height="26" as="geometry" />
        </mxCell>
        <mxCell id="eKCBTj_nnN3iUb_JfraB-418" value="" style="curved=1;endArrow=openThin;html=1;rounded=0;strokeWidth=2;endFill=0;fillColor=#fad7ac;strokeColor=#000000;entryX=0.311;entryY=-0.002;entryDx=0;entryDy=0;entryPerimeter=0;" edge="1" parent="1" target="eKCBTj_nnN3iUb_JfraB-361">
          <mxGeometry width="50" height="50" relative="1" as="geometry">
            <mxPoint x="211" y="285" as="sourcePoint" />
            <mxPoint x="248.5" y="312.88" as="targetPoint" />
            <Array as="points">
              <mxPoint x="236" y="279.76" />
              <mxPoint x="255" y="287" />
              <mxPoint x="266" y="304" />
            </Array>
          </mxGeometry>
        </mxCell>
        <mxCell id="eKCBTj_nnN3iUb_JfraB-419" value="❌" style="edgeLabel;html=1;align=center;verticalAlign=middle;resizable=0;points=[];" vertex="1" connectable="0" parent="eKCBTj_nnN3iUb_JfraB-418">
          <mxGeometry x="0.1211" y="-5" relative="1" as="geometry">
            <mxPoint x="2" y="-3" as="offset" />
          </mxGeometry>
        </mxCell>
        <mxCell id="eKCBTj_nnN3iUb_JfraB-421" value="" style="rounded=0;orthogonalLoop=1;jettySize=auto;html=1;endArrow=openThin;endFill=0;strokeColor=#82b366;strokeWidth=3;fillColor=#d5e8d4;endSize=3;" edge="1" parent="1" target="eKCBTj_nnN3iUb_JfraB-347">
          <mxGeometry relative="1" as="geometry">
            <mxPoint x="403" y="366" as="sourcePoint" />
            <mxPoint x="429" y="382" as="targetPoint" />
          </mxGeometry>
        </mxCell>
        <mxCell id="eKCBTj_nnN3iUb_JfraB-347" value="" style="ellipse;whiteSpace=wrap;html=1;aspect=fixed;strokeWidth=3;fillColor=#b1ddf0;strokeColor=#10739e;" vertex="1" parent="1">
          <mxGeometry x="388" y="359.7" width="20" height="20" as="geometry" />
        </mxCell>
        <mxCell id="eKCBTj_nnN3iUb_JfraB-422" value="" style="curved=1;endArrow=openThin;html=1;rounded=0;strokeWidth=2;endFill=0;fillColor=#fad7ac;strokeColor=#b46504;exitX=0.975;exitY=0.581;exitDx=0;exitDy=0;exitPerimeter=0;" edge="1" parent="1">
          <mxGeometry width="50" height="50" relative="1" as="geometry">
            <mxPoint x="485" y="285.7" as="sourcePoint" />
            <mxPoint x="464" y="361" as="targetPoint" />
            <Array as="points">
              <mxPoint x="520" y="291.7" />
              <mxPoint x="524" y="318" />
              <mxPoint x="492" y="325" />
              <mxPoint x="467" y="332" />
            </Array>
          </mxGeometry>
        </mxCell>
        <mxCell id="eKCBTj_nnN3iUb_JfraB-423" value="" style="shape=curlyBracket;whiteSpace=wrap;html=1;rounded=1;flipH=1;labelPosition=right;verticalLabelPosition=middle;align=left;verticalAlign=middle;strokeWidth=2;fillColor=#fad9d5;strokeColor=#ae4132;rotation=21;direction=west;" vertex="1" parent="1">
          <mxGeometry x="466" y="359.7" width="10" height="22" as="geometry" />
        </mxCell>
        <mxCell id="eKCBTj_nnN3iUb_JfraB-424" value="&lt;font face=&quot;Helvetica&quot; style=&quot;font-size: 9px;&quot;&gt;c&lt;/font&gt;" style="text;html=1;align=center;verticalAlign=middle;resizable=0;points=[];autosize=1;strokeColor=none;fillColor=none;" vertex="1" parent="1">
          <mxGeometry x="450" y="353.7" width="23" height="26" as="geometry" />
        </mxCell>
        <mxCell id="eKCBTj_nnN3iUb_JfraB-425" value="" style="curved=1;endArrow=openThin;html=1;rounded=0;strokeWidth=2;endFill=0;fillColor=#fad7ac;strokeColor=#000000;exitX=0;exitY=0.5;exitDx=0;exitDy=0;entryX=0.669;entryY=-0.005;entryDx=0;entryDy=0;entryPerimeter=0;" edge="1" parent="1" source="eKCBTj_nnN3iUb_JfraB-371" target="eKCBTj_nnN3iUb_JfraB-361">
          <mxGeometry width="50" height="50" relative="1" as="geometry">
            <mxPoint x="389" y="273.6333333333333" as="sourcePoint" />
            <mxPoint x="363.26" y="320" as="targetPoint" />
            <Array as="points">
              <mxPoint x="360" y="281" />
              <mxPoint x="350.26" y="305" />
            </Array>
          </mxGeometry>
        </mxCell>
        <mxCell id="eKCBTj_nnN3iUb_JfraB-426" value="❌" style="edgeLabel;html=1;align=center;verticalAlign=middle;resizable=0;points=[];" vertex="1" connectable="0" parent="eKCBTj_nnN3iUb_JfraB-425">
          <mxGeometry x="-0.0677" y="1" relative="1" as="geometry">
            <mxPoint x="-1" y="5" as="offset" />
          </mxGeometry>
        </mxCell>
        <mxCell id="eKCBTj_nnN3iUb_JfraB-427" value="" style="html=1;shadow=0;dashed=0;align=center;verticalAlign=middle;shape=mxgraph.arrows2.arrow;dy=0.61;dx=10.08;notch=0;strokeWidth=2;fillColor=#fad7ac;strokeColor=#b46504;rotation=90;" vertex="1" parent="1">
          <mxGeometry x="304.60999999999996" y="478" width="23.3" height="21.2" as="geometry" />
        </mxCell>
        <mxCell id="eKCBTj_nnN3iUb_JfraB-428" style="rounded=0;orthogonalLoop=1;jettySize=auto;html=1;endArrow=openThin;endFill=0;strokeColor=#82b366;strokeWidth=3;fillColor=#d5e8d4;endSize=3;" edge="1" parent="1" source="eKCBTj_nnN3iUb_JfraB-479">
          <mxGeometry relative="1" as="geometry">
            <mxPoint x="349.5" y="515.9" as="sourcePoint" />
            <mxPoint x="375.5" y="531.9000000000001" as="targetPoint" />
          </mxGeometry>
        </mxCell>
        <mxCell id="eKCBTj_nnN3iUb_JfraB-431" style="rounded=0;orthogonalLoop=1;jettySize=auto;html=1;endArrow=openThin;endFill=0;strokeColor=#82b366;strokeWidth=3;fillColor=#d5e8d4;endSize=3;exitX=1;exitY=1;exitDx=0;exitDy=0;" edge="1" parent="1" source="eKCBTj_nnN3iUb_JfraB-450">
          <mxGeometry relative="1" as="geometry">
            <mxPoint x="210.75" y="511" as="sourcePoint" />
            <mxPoint x="235.75" y="528" as="targetPoint" />
          </mxGeometry>
        </mxCell>
        <mxCell id="eKCBTj_nnN3iUb_JfraB-432" style="rounded=0;orthogonalLoop=1;jettySize=auto;html=1;endArrow=openThin;endFill=0;strokeColor=#82b366;strokeWidth=3;fillColor=#d5e8d4;endSize=3;exitX=0.5;exitY=1;exitDx=0;exitDy=0;entryX=0;entryY=0;entryDx=0;entryDy=0;" edge="1" parent="1" source="eKCBTj_nnN3iUb_JfraB-446" target="eKCBTj_nnN3iUb_JfraB-460">
          <mxGeometry relative="1" as="geometry">
            <mxPoint x="415.5" y="561.0000000000001" as="sourcePoint" />
            <mxPoint x="432.5" y="573.5000000000001" as="targetPoint" />
          </mxGeometry>
        </mxCell>
        <mxCell id="eKCBTj_nnN3iUb_JfraB-433" style="rounded=0;orthogonalLoop=1;jettySize=auto;html=1;endArrow=openThin;endFill=0;strokeColor=#82b366;strokeWidth=3;fillColor=#d5e8d4;endSize=3;exitX=1;exitY=0;exitDx=0;exitDy=0;entryX=0;entryY=1;entryDx=0;entryDy=0;" edge="1" parent="1" target="eKCBTj_nnN3iUb_JfraB-458">
          <mxGeometry relative="1" as="geometry">
            <mxPoint x="428.5" y="533.7" as="sourcePoint" />
            <mxPoint x="442.5" y="519.7" as="targetPoint" />
          </mxGeometry>
        </mxCell>
        <mxCell id="eKCBTj_nnN3iUb_JfraB-434" style="rounded=0;orthogonalLoop=1;jettySize=auto;html=1;endArrow=openThin;endFill=0;strokeColor=#82b366;strokeWidth=3;fillColor=#d5e8d4;endSize=3;entryX=0.568;entryY=-0.11;entryDx=0;entryDy=0;exitX=0.5;exitY=1;exitDx=0;exitDy=0;entryPerimeter=0;" edge="1" parent="1" source="eKCBTj_nnN3iUb_JfraB-450">
          <mxGeometry relative="1" as="geometry">
            <mxPoint x="206.3210678118611" y="520.2710678118611" as="sourcePoint" />
            <mxPoint x="216.60999999999996" y="534.5" as="targetPoint" />
            <Array as="points" />
          </mxGeometry>
        </mxCell>
        <mxCell id="eKCBTj_nnN3iUb_JfraB-435" style="rounded=0;orthogonalLoop=1;jettySize=auto;html=1;endArrow=openThin;endFill=0;strokeColor=#82b366;strokeWidth=3;fillColor=#d5e8d4;endSize=3;entryX=0;entryY=0.5;entryDx=0;entryDy=0;exitX=1.003;exitY=0.559;exitDx=0;exitDy=0;exitPerimeter=0;" edge="1" parent="1" source="eKCBTj_nnN3iUb_JfraB-438">
          <mxGeometry relative="1" as="geometry">
            <mxPoint x="229.25" y="546.7" as="sourcePoint" />
            <mxPoint x="246.25" y="546.7" as="targetPoint" />
          </mxGeometry>
        </mxCell>
        <mxCell id="eKCBTj_nnN3iUb_JfraB-436" style="rounded=0;orthogonalLoop=1;jettySize=auto;html=1;endArrow=openThin;endFill=0;strokeColor=#82b366;strokeWidth=3;fillColor=#d5e8d4;endSize=3;entryX=0;entryY=0.5;entryDx=0;entryDy=0;exitX=1;exitY=0.5;exitDx=0;exitDy=0;" edge="1" parent="1" source="eKCBTj_nnN3iUb_JfraB-437" target="eKCBTj_nnN3iUb_JfraB-438">
          <mxGeometry relative="1" as="geometry">
            <mxPoint x="198.25" y="545.7" as="sourcePoint" />
            <mxPoint x="229.33823529411768" y="555.8342465753424" as="targetPoint" />
          </mxGeometry>
        </mxCell>
        <mxCell id="eKCBTj_nnN3iUb_JfraB-437" value="" style="ellipse;whiteSpace=wrap;html=1;aspect=fixed;strokeWidth=3;fillColor=#b1ddf0;strokeColor=#10739e;" vertex="1" parent="1">
          <mxGeometry x="170.25" y="535.7" width="20" height="20" as="geometry" />
        </mxCell>
        <mxCell id="eKCBTj_nnN3iUb_JfraB-438" value="" style="ellipse;whiteSpace=wrap;html=1;aspect=fixed;strokeWidth=3;fillColor=#b1ddf0;strokeColor=#10739e;" vertex="1" parent="1">
          <mxGeometry x="207.25" y="535.7" width="20" height="20" as="geometry" />
        </mxCell>
        <mxCell id="eKCBTj_nnN3iUb_JfraB-439" style="rounded=0;orthogonalLoop=1;jettySize=auto;html=1;endArrow=openThin;endFill=0;strokeColor=#82b366;strokeWidth=3;fillColor=#d5e8d4;endSize=3;entryX=-0.062;entryY=0.694;entryDx=0;entryDy=0;entryPerimeter=0;" edge="1" parent="1" target="eKCBTj_nnN3iUb_JfraB-440">
          <mxGeometry relative="1" as="geometry">
            <mxPoint x="257.93" y="533.3" as="sourcePoint" />
            <mxPoint x="308.75" y="536.75" as="targetPoint" />
          </mxGeometry>
        </mxCell>
        <mxCell id="eKCBTj_nnN3iUb_JfraB-440" value="" style="ellipse;whiteSpace=wrap;html=1;aspect=fixed;strokeWidth=3;fillColor=#b1ddf0;strokeColor=#10739e;" vertex="1" parent="1">
          <mxGeometry x="276.25" y="508.8499999999999" width="20" height="20" as="geometry" />
        </mxCell>
        <mxCell id="eKCBTj_nnN3iUb_JfraB-441" value="&lt;font style=&quot;font-size: 14px; color: rgb(0, 102, 102);&quot; face=&quot;Tahoma&quot;&gt;...&lt;/font&gt;" style="text;html=1;align=center;verticalAlign=middle;resizable=0;points=[];autosize=1;strokeColor=none;fillColor=none;strokeWidth=3;" vertex="1" parent="1">
          <mxGeometry x="235.25" y="527.7" width="40" height="30" as="geometry" />
        </mxCell>
        <mxCell id="eKCBTj_nnN3iUb_JfraB-443" value="&lt;font style=&quot;font-size: 14px; color: rgb(0, 102, 102);&quot; face=&quot;Tahoma&quot;&gt;...&lt;/font&gt;" style="text;html=1;align=center;verticalAlign=middle;resizable=0;points=[];autosize=1;strokeColor=none;fillColor=none;strokeWidth=3;" vertex="1" parent="1">
          <mxGeometry x="366" y="524.7" width="40" height="30" as="geometry" />
        </mxCell>
        <mxCell id="eKCBTj_nnN3iUb_JfraB-444" style="rounded=0;orthogonalLoop=1;jettySize=auto;html=1;endArrow=openThin;endFill=0;strokeColor=#82b366;strokeWidth=3;fillColor=#d5e8d4;endSize=3;entryX=0;entryY=0.5;entryDx=0;entryDy=0;exitX=1;exitY=0.5;exitDx=0;exitDy=0;" edge="1" parent="1" target="eKCBTj_nnN3iUb_JfraB-447">
          <mxGeometry relative="1" as="geometry">
            <mxPoint x="436" y="543.7" as="sourcePoint" />
            <mxPoint x="467.0882352941177" y="553.8342465753424" as="targetPoint" />
          </mxGeometry>
        </mxCell>
        <mxCell id="eKCBTj_nnN3iUb_JfraB-445" style="rounded=0;orthogonalLoop=1;jettySize=auto;html=1;endArrow=openThin;endFill=0;strokeColor=#82b366;strokeWidth=3;fillColor=#d5e8d4;endSize=3;entryX=0;entryY=0.5;entryDx=0;entryDy=0;exitX=1;exitY=0.5;exitDx=0;exitDy=0;" edge="1" parent="1" target="eKCBTj_nnN3iUb_JfraB-446">
          <mxGeometry relative="1" as="geometry">
            <mxPoint x="397.5" y="543.7" as="sourcePoint" />
            <mxPoint x="428.5882352941177" y="553.8342465753424" as="targetPoint" />
          </mxGeometry>
        </mxCell>
        <mxCell id="eKCBTj_nnN3iUb_JfraB-446" value="" style="ellipse;whiteSpace=wrap;html=1;aspect=fixed;strokeWidth=3;fillColor=#b1ddf0;strokeColor=#10739e;" vertex="1" parent="1">
          <mxGeometry x="415.5" y="533.7" width="20" height="20" as="geometry" />
        </mxCell>
        <mxCell id="eKCBTj_nnN3iUb_JfraB-447" value="" style="ellipse;whiteSpace=wrap;html=1;aspect=fixed;strokeWidth=3;fillColor=#b1ddf0;strokeColor=#10739e;" vertex="1" parent="1">
          <mxGeometry x="454" y="533.7" width="20" height="20" as="geometry" />
        </mxCell>
        <mxCell id="eKCBTj_nnN3iUb_JfraB-448" style="rounded=0;orthogonalLoop=1;jettySize=auto;html=1;endArrow=openThin;endFill=0;strokeColor=#82b366;strokeWidth=3;fillColor=#d5e8d4;endSize=3;entryX=0.5;entryY=1;entryDx=0;entryDy=0;" edge="1" parent="1">
          <mxGeometry relative="1" as="geometry">
            <mxPoint x="228.75" y="573.3" as="sourcePoint" />
            <mxPoint x="246.75" y="558.59" as="targetPoint" />
          </mxGeometry>
        </mxCell>
        <mxCell id="eKCBTj_nnN3iUb_JfraB-449" value="" style="ellipse;whiteSpace=wrap;html=1;aspect=fixed;strokeWidth=3;fillColor=#b1ddf0;strokeColor=#10739e;" vertex="1" parent="1">
          <mxGeometry x="210.25" y="566" width="20" height="20" as="geometry" />
        </mxCell>
        <mxCell id="eKCBTj_nnN3iUb_JfraB-450" value="" style="ellipse;whiteSpace=wrap;html=1;aspect=fixed;strokeWidth=3;fillColor=#b1ddf0;strokeColor=#10739e;" vertex="1" parent="1">
          <mxGeometry x="203.75" y="494" width="20" height="20" as="geometry" />
        </mxCell>
        <mxCell id="eKCBTj_nnN3iUb_JfraB-453" value="" style="ellipse;whiteSpace=wrap;html=1;aspect=fixed;strokeWidth=3;fillColor=#b1ddf0;strokeColor=#10739e;" vertex="1" parent="1">
          <mxGeometry x="281.75" y="568.3" width="20" height="20" as="geometry" />
        </mxCell>
        <mxCell id="eKCBTj_nnN3iUb_JfraB-455" style="rounded=0;orthogonalLoop=1;jettySize=auto;html=1;endArrow=openThin;endFill=0;strokeColor=#82b366;strokeWidth=3;fillColor=#d5e8d4;endSize=3;exitX=1;exitY=1;exitDx=0;exitDy=0;" edge="1" parent="1">
          <mxGeometry relative="1" as="geometry">
            <mxPoint x="263.75" y="563.3" as="sourcePoint" />
            <mxPoint x="280.75" y="575.8" as="targetPoint" />
          </mxGeometry>
        </mxCell>
        <mxCell id="eKCBTj_nnN3iUb_JfraB-458" value="" style="ellipse;whiteSpace=wrap;html=1;aspect=fixed;strokeWidth=3;fillColor=#b1ddf0;strokeColor=#10739e;" vertex="1" parent="1">
          <mxGeometry x="431.5" y="500.5" width="20" height="20" as="geometry" />
        </mxCell>
        <mxCell id="eKCBTj_nnN3iUb_JfraB-459" style="rounded=0;orthogonalLoop=1;jettySize=auto;html=1;endArrow=openThin;endFill=0;strokeColor=#82b366;strokeWidth=3;fillColor=#d5e8d4;endSize=3;exitX=1;exitY=0;exitDx=0;exitDy=0;" edge="1" parent="1" source="eKCBTj_nnN3iUb_JfraB-460">
          <mxGeometry relative="1" as="geometry">
            <mxPoint x="469.5" y="600.2" as="sourcePoint" />
            <mxPoint x="460" y="555" as="targetPoint" />
          </mxGeometry>
        </mxCell>
        <mxCell id="eKCBTj_nnN3iUb_JfraB-460" value="" style="ellipse;whiteSpace=wrap;html=1;aspect=fixed;strokeWidth=3;fillColor=#b1ddf0;strokeColor=#10739e;" vertex="1" parent="1">
          <mxGeometry x="434" y="568.0000000000001" width="20" height="20" as="geometry" />
        </mxCell>
        <mxCell id="eKCBTj_nnN3iUb_JfraB-461" style="rounded=0;orthogonalLoop=1;jettySize=auto;html=1;endArrow=openThin;endFill=0;strokeColor=#82b366;strokeWidth=3;fillColor=#d5e8d4;endSize=3;entryX=0;entryY=0.5;entryDx=0;entryDy=0;" edge="1" parent="1">
          <mxGeometry relative="1" as="geometry">
            <mxPoint x="396.5" y="557.7" as="sourcePoint" />
            <mxPoint x="432.5" y="575.8000000000001" as="targetPoint" />
          </mxGeometry>
        </mxCell>
        <mxCell id="eKCBTj_nnN3iUb_JfraB-462" style="rounded=0;orthogonalLoop=1;jettySize=auto;html=1;endArrow=openThin;endFill=0;strokeColor=#d79b00;strokeWidth=3;fillColor=#ffe6cc;endSize=3;" edge="1" parent="1">
          <mxGeometry relative="1" as="geometry">
            <mxPoint x="292.25" y="546.2" as="sourcePoint" />
            <mxPoint x="338" y="553" as="targetPoint" />
          </mxGeometry>
        </mxCell>
        <mxCell id="eKCBTj_nnN3iUb_JfraB-463" value="" style="ellipse;whiteSpace=wrap;html=1;aspect=fixed;strokeWidth=3;fillColor=#b1ddf0;strokeColor=#10739e;" vertex="1" parent="1">
          <mxGeometry x="271.75" y="535.8" width="20" height="20" as="geometry" />
        </mxCell>
        <mxCell id="eKCBTj_nnN3iUb_JfraB-464" style="rounded=0;orthogonalLoop=1;jettySize=auto;html=1;endArrow=openThin;endFill=0;strokeColor=#82b366;strokeWidth=3;fillColor=#d5e8d4;endSize=3;entryX=0;entryY=0.5;entryDx=0;entryDy=0;exitX=1.023;exitY=0.226;exitDx=0;exitDy=0;exitPerimeter=0;" edge="1" parent="1" source="eKCBTj_nnN3iUb_JfraB-466">
          <mxGeometry relative="1" as="geometry">
            <mxPoint x="358" y="542.45" as="sourcePoint" />
            <mxPoint x="376" y="542.95" as="targetPoint" />
          </mxGeometry>
        </mxCell>
        <mxCell id="eKCBTj_nnN3iUb_JfraB-466" value="" style="ellipse;whiteSpace=wrap;html=1;aspect=fixed;strokeWidth=3;fillColor=#b1ddf0;strokeColor=#10739e;" vertex="1" parent="1">
          <mxGeometry x="339.5" y="548.0000000000001" width="20" height="20" as="geometry" />
        </mxCell>
        <mxCell id="eKCBTj_nnN3iUb_JfraB-478" value="" style="rounded=0;orthogonalLoop=1;jettySize=auto;html=1;endArrow=openThin;endFill=0;strokeColor=#82b366;strokeWidth=3;fillColor=#d5e8d4;endSize=3;" edge="1" parent="1" target="eKCBTj_nnN3iUb_JfraB-479">
          <mxGeometry relative="1" as="geometry">
            <mxPoint x="349.5" y="515.9" as="sourcePoint" />
            <mxPoint x="375.5" y="531.9000000000001" as="targetPoint" />
          </mxGeometry>
        </mxCell>
        <mxCell id="eKCBTj_nnN3iUb_JfraB-479" value="" style="ellipse;whiteSpace=wrap;html=1;aspect=fixed;strokeWidth=3;fillColor=#b1ddf0;strokeColor=#10739e;" vertex="1" parent="1">
          <mxGeometry x="334.5" y="509.5999999999999" width="20" height="20" as="geometry" />
        </mxCell>
        <mxCell id="eKCBTj_nnN3iUb_JfraB-483" value="&lt;font style=&quot;font-size: 15px; color: rgb(174, 65, 50);&quot; face=&quot;Courier New&quot;&gt;&lt;b style=&quot;&quot;&gt;E&#39;&lt;/b&gt;&lt;/font&gt;" style="text;html=1;align=center;verticalAlign=middle;resizable=0;points=[];autosize=1;strokeColor=none;fillColor=none;" vertex="1" parent="1">
          <mxGeometry x="297" y="297" width="36" height="30" as="geometry" />
        </mxCell>
        <mxCell id="eKCBTj_nnN3iUb_JfraB-485" value="" style="ellipse;whiteSpace=wrap;html=1;fillColor=none;gradientColor=#ffa500;strokeColor=#d79b00;strokeWidth=4;dashed=1;" vertex="1" parent="1">
          <mxGeometry x="218.16" y="338" width="44.68" height="107" as="geometry" />
        </mxCell>
        <mxCell id="eKCBTj_nnN3iUb_JfraB-486" value="" style="ellipse;whiteSpace=wrap;html=1;fillColor=none;gradientColor=#ffa500;strokeColor=#d79b00;strokeWidth=4;dashed=1;" vertex="1" parent="1">
          <mxGeometry x="378" y="338.45" width="40.7" height="102.7" as="geometry" />
        </mxCell>
        <mxCell id="eKCBTj_nnN3iUb_JfraB-487" value="&lt;font style=&quot;font-size: 14px;&quot; face=&quot;Courier New&quot;&gt;&lt;b style=&quot;&quot;&gt;X&lt;/b&gt;&lt;/font&gt;" style="text;html=1;align=center;verticalAlign=middle;resizable=0;points=[];autosize=1;strokeColor=none;fillColor=none;" vertex="1" parent="1">
          <mxGeometry x="227.5" y="440" width="26" height="29" as="geometry" />
        </mxCell>
        <mxCell id="eKCBTj_nnN3iUb_JfraB-488" value="&lt;b&gt;&lt;font style=&quot;font-size: 14px;&quot; face=&quot;Courier New&quot;&gt;Y&lt;/font&gt;&lt;/b&gt;" style="text;html=1;align=center;verticalAlign=middle;resizable=0;points=[];autosize=1;strokeColor=none;fillColor=none;" vertex="1" parent="1">
          <mxGeometry x="384" y="440" width="26" height="29" as="geometry" />
        </mxCell>
        <mxCell id="eKCBTj_nnN3iUb_JfraB-545" value="" style="shape=image;verticalLabelPosition=bottom;labelBackgroundColor=default;verticalAlign=top;aspect=fixed;imageAspect=0;image=data:image/png,iVBORw0KGgoAAAANSUhEUgAAAOgAAABaCAYAAACyqxoGAAAACXBIWXMAABYlAAAWJQFJUiTwAAAVmklEQVR4nO2deVQT1/fALxZta421VlOlUTHVWKPHFmoqCnEXjlKKaLFKRXHBY91FW2vdvhYrglata10QhVYU66ki6EEoi5ojFrWiFnDDBQQZZZGwB/N+f/SHXyGZmTfJm2TIdz7nzB+Z9+beO5O582beu+8+O4QQAhEREUHSwtoGiIiI0CM6qIiIgBEdVEREwIgOKiIiYEQHFRERMPbWNoAkpaWlcPfuXXjw4AE8ePAAcnNz4eHDh9CqVStQKBQgl8tBLpdD3759wcHBwdrmijQTgoODoaamBlasWAGtW7e2qG47rsMs8fHxcO3aNSLKx4wZA05OTmbLyczMhO3bt0N4eDj2MRMnToSFCxeCi4uL2fpFbJezZ8+Ch4cHAADI5XI4ePAgqNVqyxmAOAIAxLaIiAiu6htx+vRpNHToULNsUKlU6MKFC2bZIWK7XLlyBUkkkkb3zLp169CLFy8sot+qDhoTE2OS0TqdDi1ZsoRWrlQqRatXr0bHjh1DaWlpKCIiAi1evJjRlp07d5pki4jtk5OTg2QyWaP7xcfHBz1//px33Zxfce3s7FjrqNVqGD9+PDg4OMDbb79ttI69vT0MGzYMS96rlJWVgZ+fH5w5c8ZoeVBQEPznP/8BiURiUFZQUADfffcdREVFGT12+vTpsGPHDnjzzTc52SRi+xQVFYGXlxdkZGS83KdQKCA2NhZ69erFn2KuHg0sreIvv/xC/jHy/zx48AApFApa3UeOHMGSs23bNloZw4cPRzqdjrdzEGm+VFRUIC8vr0b3i0QiQefOneNNJ1EHVavVfNiIEEKopqYGqVQqWt1r1qzhJG/+/Pm0soKCgvg5CZFmj06nM3BSAEAajYYXfUQd9Pvvv+fDRoQQYvyGHDVqFOePdp1Oh1xdXWllRkdH83QmIs2diooKo41Feno6cV1EHTQ8PJy4gQghdPLkSUa9ly5dMkluWloao9zMzEzCZyJiKxQVFSG5XG7wupuRkUFUD9FIolatWpEUBwAAFEXB5MmTacs9PT3h008/NUn24MGDYfjw4bTlCxcuNEmuiO0jlUohISGhUWekVquF4cOHQ25uLjE9gg/127FjB2i1WtrylStXmiV/7dq1tGWpqamQlJRklnwR26VHjx4QHR3daJ9WqwVfX1+orq4mo4RrkwsMr4RRUVFEm/fS0lKDQeJXN5lMhvR6vVk69Ho9kkqltDpUKpXZOkRsm8mTJxvcN7NmzSIiW9At6J49exhbzy+//JLzOGpT7Ozs4KuvvqItz8jIgFOnTpmlQ8S22bJli8G4+969eyEyMtJs2YJ10KqqKvjxxx8Z63z++edEdHl5eTGWr1u3jogeEdukQ4cORuPAp06dCjk5OWbJFqyDxsfHM7aeEokEBg0aRESXm5ub0cijBjIyMuDBgwdEdInYJr6+vkYnXixYsMAsuYJ10NOnTzOWu7m5gb09mdlyLVu2ZHX2kydPEtElYrt8++23BvsSExPh999/N1mmIB20vr4ejh8/zliHxDQ1LvKOHDlCVJ+I7eHl5QVyudxg/9y5c6GystIkmYJ00L/++ovx9RYA4OOPPyaq86OPPmIsT09Ph7y8PKI6RWwLe3t7+Oabbwz2UxQFGzZsMEmmIB00ISGBtU7fvn2J6uzTpw9rnfj4eKI6RWwPuqCadevWQVFREWd5gnTQP//8k7VOz549ierEmTJ0+fJlojpFbI82bdrQjgrs2bOHszxBOuj169cZy2UyGbEOogZatWoFMpmMsc7ff/9NVKeIbULnoJs2bYKqqipOsgTnoIWFhazfn926deNFN5uDXr16FXQ6HS+6RWyHUaNGGd2v1WoNQgPZEFxWvzt37rDWef/993nR3aVLF0hPT2esc+fOHVAqlbzoFxL379+HtLQ0uHDhAjx69AgeP34MAP9eo86dO0Pnzp3BwcEBBg4cCM7OzmZHdLFx69YtSE5OhitXrgBFUfDkyRN4/vw5tG/fHrp27QqOjo7g5OQEnp6ejGPalsDR0RGUSiVkZWUZlIWFhcG0adOgRQvMtpFrbCDwHIu7d+9e1qwNixcvNluPMZgmcTdspuZRag7U1dWhmJgY5OzszHodXt2kUikKDQ1FWq2WqD3V1dVo9+7dBvmA2LYJEyagtLQ0orZwZfbs2USmRwruFRcnNKpz58686MaRm52dzYtua3Py5EmQy+UwYcIEuHr1KqdjKYqCZcuWgYODAxw8eJCYPd26dYOvv/4a8vPzOR0bExMDQ4YMgblz50J5eTkRe7jCNMoQFxeHLUdwDvr06VPWOh06dOBFt1QqZa1TXFzMi25rUV5eDjNnzoSxY8dydoSmaLVamDZtGkyaNAnKyspMklFbWwtBQUEwduxYoCjKLHt27doFPXv2hLNnz5olxxQ+/PBD2rKjR49iyxGcg1ZUVLDW4SvrHk7WcGs9kfkgPz8fnJycOCX8xuHIkSPwySefwKNHjzgdp9frYfr06bBlyxZitlAUBR4eHiYNcZgDk4Pevn0bbt26hSVHcA76/Plz1jp8ZG7AlYtjX3OAoigYMWIE0dn/r5KbmwsqlQr7RgQAWLVqFRw+fJgXe2bPno01vk4KBwcHxs4q3NdcwTko2xALAMDrr7/Oi24cuaWlpbzotiRlZWUwevRouH37ttHygIAASEpKgsLCQigvL4fs7Gz49ddfaYcP6KAoClQqFVa/Qnh4OKxfv56TfK74+PhwemCYg52dHXTp0oW2PC0tDU8Q194p4LkXlynvbcOWmJhoth5jJCQksOp2dnbmRbclCQwMNHpuEokEpaamMh6blZWFhg8fzqlXVSaTocePH9PKxLnupDa5XI5KSkpIX1KjMF0nqVSKJUNwLShO58Ibb7zBi26cFtTcjgtrc/nyZdi3b5/BfqVSCZmZmTBkyBDG43v37g1JSUkQERGBrTM/Px9Gjx5t9POAoij44osvWGV4enrC5s2b4dixY5CcnAyJiYkQGRkJa9asAYVCgW1Lbm6uxb5HO3XqRFtGURTevcT1qQA8t6A4Y14XL140W48xYmNjbboFffHiBXJxcTHacprSqqSnpzPmc2q6eXh4GGTtDwgIYDxm48aNqKqqitWWjIwMNHr0aCw7pFIpqqur43y+XFmwYAGjHcnJyawyBNeC4vSk1tXV8aL7nXfeYa1j6vCBEPjjjz+MRkpt3LgR69ybMmDAALh06RJriGQDCQkJsHr16pe/z58/TztuGhAQAI8fP4alS5di9dr3798f4uPj4dChQ6x1KYqyyAR8tuFAtphzAAF2EtEttvQqfDlobW0ta5127drxotsSGIsDVSgUMGPGDJNlOjo6QkpKCtYYMgBASEgInDhxAnQ6HcyePdtonZSUFIiIiOC8yLKdnR1MmTIFzp8/z1p369atnGSbQvv27RnL7969yypDcA6KE0eJ40imUFNTw1rnrbfe4kU331RVVRnNUrFu3TqzZwb16NEDEhMTsWNgfXx8YNasWUZjVVNTU2Ho0KFm2ePm5sY6p1ij0UBmZqZZetho2bIlYznO25jgHBTHAXAcyRRwWua2bdvyoptvUlJSjO5XqVRE5Pfr14/TTA1jr7YJCQmsnVS4uLu7g6+vL2OdCxcuENFFB5uD4gzZCc5Bhf6Ka+2ZEqZC983VtWtXYjo8PT3hhx9+MOnYQ4cOgbu7OzFbAKDR964x+J6Ab5MtqKOjI2sdYmn1m4DTMvMVB8w3Go3GYJ+Liwv+tCdMVqxYAZ6enpyO8fPzgylTphC1A+DfgHU/Pz/acq6TArjC9umAE3cuOAf94IMPWOuYktsFB5wL1qNHD150842xhGckW88GWrRoAeHh4dhvGjKZDHbu3EncjgaY1u558uQJb3oBbLQF7d69O2udwsJCXnTjyOUyKC4UamtrjYZQmpoKko333nsPfvvtN6y6bdu25bXjrXfv3uDt7W20zNpBJzix383SQQsKCnjRjTPdyljeU6Hz7Nkzo/v5vEG9vLwgMDCQtV5WVhZs27aNNzsAAIYNG0ZbxmcKGzbZOB2OgnNQnLGvhvQbpMFxfJwHiNCgc8SMjAxeb9CwsDCs8dGlS5fyurTGgAEDaMv4TNVikw5qb2/P2vVv7sRiOh4+fMhYrlAoeJvqxidM39Y40Sym0q5dO9i9ezdW3Xnz5vFmB11KVYlEQjw75KuwOSjOiIXgHBSAPitaA/n5+cR7cmtqalgdn9QYnaVh6qlNTU3lVfe4ceNovwFfJT4+nli6lKbQOQJfqXMaYBsObJYtKADzN0MD5i7r1hScXEMeHh5EdVoKphshLCyMc65WrkybNg27HtcsDDi0aNHCaK8y358rbC0ozpCiIB3U2DJuTblx4wZRnThhX+aGoFkLplcpiqLgwIEDvOl++vQpp9fXmTNngl6vJ2pDVVWV0V5stVpNVE9T2CKFcFZHEKSDtmnTBlxdXRnrXLt2jahONgd1cXGBd999l6hOS8EWtB0cHMxLK6rT6WDChAmc+gwSExMhLCyMqB10WRT4fuCyjdfjjKkL0kEB2FfPJh2mlZGRwVg+ZswYovosSceOHRl7UymKMjqJ2xxqampg0qRJJn3jLl++nDZ22BToPof69+9PTIcx2AJfsIbsuE5CBZ4nbDdQWFjIOvG2vLyciK6ysjJWXTk5OUR0WYvx48cznp9EIkF3794loqu8vJxzWhRj9uTl5RGxZ8mSJQbyp0+fTkQ2E66uroznV19fzypDsC1op06dwN/fn7FOYmIiEV1seVO9vb2xVj8TMm5ubozlWq0W3N3dzQ4CefLkCYwYMQKSk5MNyvz9/YGiKKyxUa1WCx4eHmYnaSssLISffvrJYD+fwzqv6qbD3d0dXnvtNXYhXJ8KYKEWFCGENBoNoz5/f38ieiZMmMCohy2RVnOguLgYq+WSy+UoIyODs/yKigq0fv16xhajqKgIIYTQ+fPnsVtSV1dXVFlZafJ5G1uCQa1WmywPF51Ox3heu3btwpIjaAdFCKF+/fox/uk1NTVmya+srGQ8J1NzEGk0GrR582YUGBiIZs+ejfbt24cuX75skJPHkixevBjbMdauXYuKi4tZZep0OrR//37W3EQHDhxodFxISAgnJ3327Bnn871+/bpReUlJSZxlcSUnJ4fxnG7cuIElR/AOGhcXx6gzMjLSLPlsizVxXSzp2bNnyNfXl1aeUqlE6enpZtlsKrm5udhO0bD5+fmh6OhopNFo0L1791BOTg7SaDQoMjISTZ06FStpmFqtRi9evGhkS319PXaSL4B/W/bbt29jn2tmZqbRBHQBAQGkL6tRjh8/TnsuUqnU4HrQIXgHRQghf39/Wp0ymQzV1taaJLeqqorxBvP29uYs08fHB+uGS0hIMMlmc/Hz8+PspOZsEokEZWdnG7WlqKiI88ploaGhrP83nXNIJBKstwISrF27lvYcli9fji2nWThocXExoyPt3bvXJLlbt25lfMpRFMVJXkpKCqcb9969eybZbQ5ZWVkWdc6rV68y2pOXl4fkcjknuTKZDAUHB6OcnJyXnww6nQ5dvHgRzZgxg/a4M2fOWOISI4QQ8vb2prXjn3/+wZbTLBwUIYROnDjBeCPcv3+fk7zbt28jiURC9M/cuHEjpxtt/vz5nHWQ4Ny5c7w7p1QqRTdv3sSyp6CgAGtFAab/n61OdHQ0z1f1v9TW1tLapFKpOMlqNg6KEEIrV66k1a1QKLCTL1MUxfjUXrZsmUn2MT296baKigqTdJnL6dOneXVOLt+LCP37nzB1CJqzmfqGZSpJSUm0toSHh3OS1awcFCGEtmzZQqtfrVajR48eMR5/7949pFKpaGWEhoaabFtQUBDnmyczM9NkfeZy7Ngx4s7Qr18/lJuba5I9xcXFSK1WE7NFIpGgU6dOEb5q7NBllJfL5Zz7S5qdgyKEUFRUFKMdGzZsQKWlpY2OKSkpQcHBwYzHmbu8/f79+znfRLGxsWbpNJfs7Gzsji22bfv27WYPI9XX16Nt27aZbYu3t/fLcVdL8uLFC9r+kmPHjnGW1ywdFKF/XyPYXolkMhlSq9WsQwEKhQJpNBqzbdJqtVjfQ9a6ZkxoNBrG0DS6TS6Xo61bt5o0TslEXl4eWrZsGWd7Jk6caJFxTjroOgpVKhXS6/Wc5TVbB0UIIb1ej+Li4owuCISzubq6otjYWKyYSFxu3LjBqVeSxIOBFHq9HmVmZqJt27Yhb29vpFQqGz1wZDIZUqlUyN/fH+3evRtdvXrVpJuOC8+fP0exsbFo0aJFyMXFpdGwjFwuR6NHj0Zz5sxBu3bt4tzrzgd0McimRqPZIYQQcIAph0tUVBRMnjyZizhipKSkwJkzZyAnJwdu3bpldHFauVwOvXr1gl69eoGvry8MGjSIF1v0ej1cvHgRbt68CU+fPoXWrVuDo6Mj1NXVwaRJkxrVLSkpMWnhIhHhkZ6eDgMHDjTY7+npib2idlNsxkGbUl9fD3l5eUBRFHTs2BG6dOnCmqfUEvTp0+flmiQymcxovlqR5slnn30G8fHxBvuzsrKgd+/eJsnkL2OSlbG3t4fu3bsLKgtfdXV1owWDSK2LImJ90tLSjDrn4cOHTXZOAAFP2LZFmiZznjNnjpUsESFJeXm50TfH+fPnG3zScEV0UAtRUlICQUFBL397eHjAyJEjrWiRCCmCgoIM0rq4urrCpk2bzJYtOqgF0Ov1sGjRokaJq0JCQqxokQgpYmNjITw8vNE+iUQCMTExRHIoE3VQvtM3NleWLFkCUVFRL39PnToVnJycrGiRCAlu3bpl9NU2Li6O8+rgdBB10NzcXJLimj0IIVixYkWj5dZdXV1hx44dVrRKhAQFBQUwcuRIg3SeiYmJMHjwYGJ6iPbismXG+1+ivLwcAgMDISYm5uU+Z2dniI+PhzZt2ljRMhFzKS0thVGjRjX67pRIJHD27FmsnM6c4BrZACyRMZaccydUrl+/bjB9SqlUEg+HE7E8lZWVBgH9UqmUt0kPxB0UAFBISAh6+PChVfPvWIvq6mqD6zFv3jxUVlZmbdNEzKSkpMTAOWUyGbpz5w5vOnlx0Fc3iURCux0+fJiPc7I6DbPplUolunjxorXNESHAo0ePkFKpbHRvOzs7E8vdSwfvkUTG1sRooLa2lm/1ViE0NBQ8PDxgxowZzXK5QpHG3Lx5E0aMGNFondVVq1bBypUref9/OTuoQqEgNpwipDA8kjQE5Is0f65cuQLDhg172dDIZDI4evQobxMtmsLZQekWohERsUXy8/NfOmdAQAD8/PPPWOt6koLzbBYRkf8lEEIwffp08PLygnHjxllcv+igIiICRozFFRERMKKDiogIGNFBRUQEjOigIiICRnRQEREBIzqoiIiA+T98/pZRQYdfrQAAAABJRU5ErkJggg==;" vertex="1" parent="1">
          <mxGeometry x="260.21" y="159" width="23.58" height="9.15" as="geometry" />
        </mxCell>
        <mxCell id="eKCBTj_nnN3iUb_JfraB-547" value="" style="shape=image;verticalLabelPosition=bottom;labelBackgroundColor=default;verticalAlign=top;aspect=fixed;imageAspect=0;image=data:image/png,iVBORw0KGgoAAAANSUhEUgAAAOgAAABaCAYAAACyqxoGAAAACXBIWXMAABYlAAAWJQFJUiTwAAAVmklEQVR4nO2deVQT1/fALxZta421VlOlUTHVWKPHFmoqCnEXjlKKaLFKRXHBY91FW2vdvhYrglata10QhVYU66ki6EEoi5ojFrWiFnDDBQQZZZGwB/N+f/SHXyGZmTfJm2TIdz7nzB+Z9+beO5O582beu+8+O4QQAhEREUHSwtoGiIiI0CM6qIiIgBEdVEREwIgOKiIiYEQHFRERMPbWNoAkpaWlcPfuXXjw4AE8ePAAcnNz4eHDh9CqVStQKBQgl8tBLpdD3759wcHBwdrmijQTgoODoaamBlasWAGtW7e2qG47rsMs8fHxcO3aNSLKx4wZA05OTmbLyczMhO3bt0N4eDj2MRMnToSFCxeCi4uL2fpFbJezZ8+Ch4cHAADI5XI4ePAgqNVqyxmAOAIAxLaIiAiu6htx+vRpNHToULNsUKlU6MKFC2bZIWK7XLlyBUkkkkb3zLp169CLFy8sot+qDhoTE2OS0TqdDi1ZsoRWrlQqRatXr0bHjh1DaWlpKCIiAi1evJjRlp07d5pki4jtk5OTg2QyWaP7xcfHBz1//px33Zxfce3s7FjrqNVqGD9+PDg4OMDbb79ttI69vT0MGzYMS96rlJWVgZ+fH5w5c8ZoeVBQEPznP/8BiURiUFZQUADfffcdREVFGT12+vTpsGPHDnjzzTc52SRi+xQVFYGXlxdkZGS83KdQKCA2NhZ69erFn2KuHg0sreIvv/xC/jHy/zx48AApFApa3UeOHMGSs23bNloZw4cPRzqdjrdzEGm+VFRUIC8vr0b3i0QiQefOneNNJ1EHVavVfNiIEEKopqYGqVQqWt1r1qzhJG/+/Pm0soKCgvg5CZFmj06nM3BSAEAajYYXfUQd9Pvvv+fDRoQQYvyGHDVqFOePdp1Oh1xdXWllRkdH83QmIs2diooKo41Feno6cV1EHTQ8PJy4gQghdPLkSUa9ly5dMkluWloao9zMzEzCZyJiKxQVFSG5XG7wupuRkUFUD9FIolatWpEUBwAAFEXB5MmTacs9PT3h008/NUn24MGDYfjw4bTlCxcuNEmuiO0jlUohISGhUWekVquF4cOHQ25uLjE9gg/127FjB2i1WtrylStXmiV/7dq1tGWpqamQlJRklnwR26VHjx4QHR3daJ9WqwVfX1+orq4mo4RrkwsMr4RRUVFEm/fS0lKDQeJXN5lMhvR6vVk69Ho9kkqltDpUKpXZOkRsm8mTJxvcN7NmzSIiW9At6J49exhbzy+//JLzOGpT7Ozs4KuvvqItz8jIgFOnTpmlQ8S22bJli8G4+969eyEyMtJs2YJ10KqqKvjxxx8Z63z++edEdHl5eTGWr1u3jogeEdukQ4cORuPAp06dCjk5OWbJFqyDxsfHM7aeEokEBg0aRESXm5ub0cijBjIyMuDBgwdEdInYJr6+vkYnXixYsMAsuYJ10NOnTzOWu7m5gb09mdlyLVu2ZHX2kydPEtElYrt8++23BvsSExPh999/N1mmIB20vr4ejh8/zliHxDQ1LvKOHDlCVJ+I7eHl5QVyudxg/9y5c6GystIkmYJ00L/++ovx9RYA4OOPPyaq86OPPmIsT09Ph7y8PKI6RWwLe3t7+Oabbwz2UxQFGzZsMEmmIB00ISGBtU7fvn2J6uzTpw9rnfj4eKI6RWwPuqCadevWQVFREWd5gnTQP//8k7VOz549ierEmTJ0+fJlojpFbI82bdrQjgrs2bOHszxBOuj169cZy2UyGbEOogZatWoFMpmMsc7ff/9NVKeIbULnoJs2bYKqqipOsgTnoIWFhazfn926deNFN5uDXr16FXQ6HS+6RWyHUaNGGd2v1WoNQgPZEFxWvzt37rDWef/993nR3aVLF0hPT2esc+fOHVAqlbzoFxL379+HtLQ0uHDhAjx69AgeP34MAP9eo86dO0Pnzp3BwcEBBg4cCM7OzmZHdLFx69YtSE5OhitXrgBFUfDkyRN4/vw5tG/fHrp27QqOjo7g5OQEnp6ejGPalsDR0RGUSiVkZWUZlIWFhcG0adOgRQvMtpFrbCDwHIu7d+9e1qwNixcvNluPMZgmcTdspuZRag7U1dWhmJgY5OzszHodXt2kUikKDQ1FWq2WqD3V1dVo9+7dBvmA2LYJEyagtLQ0orZwZfbs2USmRwruFRcnNKpz58686MaRm52dzYtua3Py5EmQy+UwYcIEuHr1KqdjKYqCZcuWgYODAxw8eJCYPd26dYOvv/4a8vPzOR0bExMDQ4YMgblz50J5eTkRe7jCNMoQFxeHLUdwDvr06VPWOh06dOBFt1QqZa1TXFzMi25rUV5eDjNnzoSxY8dydoSmaLVamDZtGkyaNAnKyspMklFbWwtBQUEwduxYoCjKLHt27doFPXv2hLNnz5olxxQ+/PBD2rKjR49iyxGcg1ZUVLDW4SvrHk7WcGs9kfkgPz8fnJycOCX8xuHIkSPwySefwKNHjzgdp9frYfr06bBlyxZitlAUBR4eHiYNcZgDk4Pevn0bbt26hSVHcA76/Plz1jp8ZG7AlYtjX3OAoigYMWIE0dn/r5KbmwsqlQr7RgQAWLVqFRw+fJgXe2bPno01vk4KBwcHxs4q3NdcwTko2xALAMDrr7/Oi24cuaWlpbzotiRlZWUwevRouH37ttHygIAASEpKgsLCQigvL4fs7Gz49ddfaYcP6KAoClQqFVa/Qnh4OKxfv56TfK74+PhwemCYg52dHXTp0oW2PC0tDU8Q194p4LkXlynvbcOWmJhoth5jJCQksOp2dnbmRbclCQwMNHpuEokEpaamMh6blZWFhg8fzqlXVSaTocePH9PKxLnupDa5XI5KSkpIX1KjMF0nqVSKJUNwLShO58Ibb7zBi26cFtTcjgtrc/nyZdi3b5/BfqVSCZmZmTBkyBDG43v37g1JSUkQERGBrTM/Px9Gjx5t9POAoij44osvWGV4enrC5s2b4dixY5CcnAyJiYkQGRkJa9asAYVCgW1Lbm6uxb5HO3XqRFtGURTevcT1qQA8t6A4Y14XL140W48xYmNjbboFffHiBXJxcTHacprSqqSnpzPmc2q6eXh4GGTtDwgIYDxm48aNqKqqitWWjIwMNHr0aCw7pFIpqqur43y+XFmwYAGjHcnJyawyBNeC4vSk1tXV8aL7nXfeYa1j6vCBEPjjjz+MRkpt3LgR69ybMmDAALh06RJriGQDCQkJsHr16pe/z58/TztuGhAQAI8fP4alS5di9dr3798f4uPj4dChQ6x1KYqyyAR8tuFAtphzAAF2EtEttvQqfDlobW0ta5127drxotsSGIsDVSgUMGPGDJNlOjo6QkpKCtYYMgBASEgInDhxAnQ6HcyePdtonZSUFIiIiOC8yLKdnR1MmTIFzp8/z1p369atnGSbQvv27RnL7969yypDcA6KE0eJ40imUFNTw1rnrbfe4kU331RVVRnNUrFu3TqzZwb16NEDEhMTsWNgfXx8YNasWUZjVVNTU2Ho0KFm2ePm5sY6p1ij0UBmZqZZetho2bIlYznO25jgHBTHAXAcyRRwWua2bdvyoptvUlJSjO5XqVRE5Pfr14/TTA1jr7YJCQmsnVS4uLu7g6+vL2OdCxcuENFFB5uD4gzZCc5Bhf6Ka+2ZEqZC983VtWtXYjo8PT3hhx9+MOnYQ4cOgbu7OzFbAKDR964x+J6Ab5MtqKOjI2sdYmn1m4DTMvMVB8w3Go3GYJ+Liwv+tCdMVqxYAZ6enpyO8fPzgylTphC1A+DfgHU/Pz/acq6TArjC9umAE3cuOAf94IMPWOuYktsFB5wL1qNHD150842xhGckW88GWrRoAeHh4dhvGjKZDHbu3EncjgaY1u558uQJb3oBbLQF7d69O2udwsJCXnTjyOUyKC4UamtrjYZQmpoKko333nsPfvvtN6y6bdu25bXjrXfv3uDt7W20zNpBJzix383SQQsKCnjRjTPdyljeU6Hz7Nkzo/v5vEG9vLwgMDCQtV5WVhZs27aNNzsAAIYNG0ZbxmcKGzbZOB2OgnNQnLGvhvQbpMFxfJwHiNCgc8SMjAxeb9CwsDCs8dGlS5fyurTGgAEDaMv4TNVikw5qb2/P2vVv7sRiOh4+fMhYrlAoeJvqxidM39Y40Sym0q5dO9i9ezdW3Xnz5vFmB11KVYlEQjw75KuwOSjOiIXgHBSAPitaA/n5+cR7cmtqalgdn9QYnaVh6qlNTU3lVfe4ceNovwFfJT4+nli6lKbQOQJfqXMaYBsObJYtKADzN0MD5i7r1hScXEMeHh5EdVoKphshLCyMc65WrkybNg27HtcsDDi0aNHCaK8y358rbC0ozpCiIB3U2DJuTblx4wZRnThhX+aGoFkLplcpiqLgwIEDvOl++vQpp9fXmTNngl6vJ2pDVVWV0V5stVpNVE9T2CKFcFZHEKSDtmnTBlxdXRnrXLt2jahONgd1cXGBd999l6hOS8EWtB0cHMxLK6rT6WDChAmc+gwSExMhLCyMqB10WRT4fuCyjdfjjKkL0kEB2FfPJh2mlZGRwVg+ZswYovosSceOHRl7UymKMjqJ2xxqampg0qRJJn3jLl++nDZ22BToPof69+9PTIcx2AJfsIbsuE5CBZ4nbDdQWFjIOvG2vLyciK6ysjJWXTk5OUR0WYvx48cznp9EIkF3794loqu8vJxzWhRj9uTl5RGxZ8mSJQbyp0+fTkQ2E66uroznV19fzypDsC1op06dwN/fn7FOYmIiEV1seVO9vb2xVj8TMm5ubozlWq0W3N3dzQ4CefLkCYwYMQKSk5MNyvz9/YGiKKyxUa1WCx4eHmYnaSssLISffvrJYD+fwzqv6qbD3d0dXnvtNXYhXJ8KYKEWFCGENBoNoz5/f38ieiZMmMCohy2RVnOguLgYq+WSy+UoIyODs/yKigq0fv16xhajqKgIIYTQ+fPnsVtSV1dXVFlZafJ5G1uCQa1WmywPF51Ox3heu3btwpIjaAdFCKF+/fox/uk1NTVmya+srGQ8J1NzEGk0GrR582YUGBiIZs+ejfbt24cuX75skJPHkixevBjbMdauXYuKi4tZZep0OrR//37W3EQHDhxodFxISAgnJ3327Bnn871+/bpReUlJSZxlcSUnJ4fxnG7cuIElR/AOGhcXx6gzMjLSLPlsizVxXSzp2bNnyNfXl1aeUqlE6enpZtlsKrm5udhO0bD5+fmh6OhopNFo0L1791BOTg7SaDQoMjISTZ06FStpmFqtRi9evGhkS319PXaSL4B/W/bbt29jn2tmZqbRBHQBAQGkL6tRjh8/TnsuUqnU4HrQIXgHRQghf39/Wp0ymQzV1taaJLeqqorxBvP29uYs08fHB+uGS0hIMMlmc/Hz8+PspOZsEokEZWdnG7WlqKiI88ploaGhrP83nXNIJBKstwISrF27lvYcli9fji2nWThocXExoyPt3bvXJLlbt25lfMpRFMVJXkpKCqcb9969eybZbQ5ZWVkWdc6rV68y2pOXl4fkcjknuTKZDAUHB6OcnJyXnww6nQ5dvHgRzZgxg/a4M2fOWOISI4QQ8vb2prXjn3/+wZbTLBwUIYROnDjBeCPcv3+fk7zbt28jiURC9M/cuHEjpxtt/vz5nHWQ4Ny5c7w7p1QqRTdv3sSyp6CgAGtFAab/n61OdHQ0z1f1v9TW1tLapFKpOMlqNg6KEEIrV66k1a1QKLCTL1MUxfjUXrZsmUn2MT296baKigqTdJnL6dOneXVOLt+LCP37nzB1CJqzmfqGZSpJSUm0toSHh3OS1awcFCGEtmzZQqtfrVajR48eMR5/7949pFKpaGWEhoaabFtQUBDnmyczM9NkfeZy7Ngx4s7Qr18/lJuba5I9xcXFSK1WE7NFIpGgU6dOEb5q7NBllJfL5Zz7S5qdgyKEUFRUFKMdGzZsQKWlpY2OKSkpQcHBwYzHmbu8/f79+znfRLGxsWbpNJfs7Gzsji22bfv27WYPI9XX16Nt27aZbYu3t/fLcVdL8uLFC9r+kmPHjnGW1ywdFKF/XyPYXolkMhlSq9WsQwEKhQJpNBqzbdJqtVjfQ9a6ZkxoNBrG0DS6TS6Xo61bt5o0TslEXl4eWrZsGWd7Jk6caJFxTjroOgpVKhXS6/Wc5TVbB0UIIb1ej+Li4owuCISzubq6otjYWKyYSFxu3LjBqVeSxIOBFHq9HmVmZqJt27Yhb29vpFQqGz1wZDIZUqlUyN/fH+3evRtdvXrVpJuOC8+fP0exsbFo0aJFyMXFpdGwjFwuR6NHj0Zz5sxBu3bt4tzrzgd0McimRqPZIYQQcIAph0tUVBRMnjyZizhipKSkwJkzZyAnJwdu3bpldHFauVwOvXr1gl69eoGvry8MGjSIF1v0ej1cvHgRbt68CU+fPoXWrVuDo6Mj1NXVwaRJkxrVLSkpMWnhIhHhkZ6eDgMHDjTY7+npib2idlNsxkGbUl9fD3l5eUBRFHTs2BG6dOnCmqfUEvTp0+flmiQymcxovlqR5slnn30G8fHxBvuzsrKgd+/eJsnkL2OSlbG3t4fu3bsLKgtfdXV1owWDSK2LImJ90tLSjDrn4cOHTXZOAAFP2LZFmiZznjNnjpUsESFJeXm50TfH+fPnG3zScEV0UAtRUlICQUFBL397eHjAyJEjrWiRCCmCgoIM0rq4urrCpk2bzJYtOqgF0Ov1sGjRokaJq0JCQqxokQgpYmNjITw8vNE+iUQCMTExRHIoE3VQvtM3NleWLFkCUVFRL39PnToVnJycrGiRCAlu3bpl9NU2Li6O8+rgdBB10NzcXJLimj0IIVixYkWj5dZdXV1hx44dVrRKhAQFBQUwcuRIg3SeiYmJMHjwYGJ6iPbismXG+1+ivLwcAgMDISYm5uU+Z2dniI+PhzZt2ljRMhFzKS0thVGjRjX67pRIJHD27FmsnM6c4BrZACyRMZaccydUrl+/bjB9SqlUEg+HE7E8lZWVBgH9UqmUt0kPxB0UAFBISAh6+PChVfPvWIvq6mqD6zFv3jxUVlZmbdNEzKSkpMTAOWUyGbpz5w5vOnlx0Fc3iURCux0+fJiPc7I6DbPplUolunjxorXNESHAo0ePkFKpbHRvOzs7E8vdSwfvkUTG1sRooLa2lm/1ViE0NBQ8PDxgxowZzXK5QpHG3Lx5E0aMGNFondVVq1bBypUref9/OTuoQqEgNpwipDA8kjQE5Is0f65cuQLDhg172dDIZDI4evQobxMtmsLZQekWohERsUXy8/NfOmdAQAD8/PPPWOt6koLzbBYRkf8lEEIwffp08PLygnHjxllcv+igIiICRozFFRERMKKDiogIGNFBRUQEjOigIiICRnRQEREBIzqoiIiA+T98/pZRQYdfrQAAAABJRU5ErkJggg==;" vertex="1" parent="1">
          <mxGeometry x="231.99999999999997" y="104.5" width="23.58" height="9.15" as="geometry" />
        </mxCell>
        <mxCell id="eKCBTj_nnN3iUb_JfraB-548" value="" style="shape=image;verticalLabelPosition=bottom;labelBackgroundColor=default;verticalAlign=top;aspect=fixed;imageAspect=0;image=data:image/png,iVBORw0KGgoAAAANSUhEUgAAAOgAAABaCAYAAACyqxoGAAAACXBIWXMAABYlAAAWJQFJUiTwAAAVmklEQVR4nO2deVQT1/fALxZta421VlOlUTHVWKPHFmoqCnEXjlKKaLFKRXHBY91FW2vdvhYrglata10QhVYU66ki6EEoi5ojFrWiFnDDBQQZZZGwB/N+f/SHXyGZmTfJm2TIdz7nzB+Z9+beO5O582beu+8+O4QQAhEREUHSwtoGiIiI0CM6qIiIgBEdVEREwIgOKiIiYEQHFRERMPbWNoAkpaWlcPfuXXjw4AE8ePAAcnNz4eHDh9CqVStQKBQgl8tBLpdD3759wcHBwdrmijQTgoODoaamBlasWAGtW7e2qG47rsMs8fHxcO3aNSLKx4wZA05OTmbLyczMhO3bt0N4eDj2MRMnToSFCxeCi4uL2fpFbJezZ8+Ch4cHAADI5XI4ePAgqNVqyxmAOAIAxLaIiAiu6htx+vRpNHToULNsUKlU6MKFC2bZIWK7XLlyBUkkkkb3zLp169CLFy8sot+qDhoTE2OS0TqdDi1ZsoRWrlQqRatXr0bHjh1DaWlpKCIiAi1evJjRlp07d5pki4jtk5OTg2QyWaP7xcfHBz1//px33Zxfce3s7FjrqNVqGD9+PDg4OMDbb79ttI69vT0MGzYMS96rlJWVgZ+fH5w5c8ZoeVBQEPznP/8BiURiUFZQUADfffcdREVFGT12+vTpsGPHDnjzzTc52SRi+xQVFYGXlxdkZGS83KdQKCA2NhZ69erFn2KuHg0sreIvv/xC/jHy/zx48AApFApa3UeOHMGSs23bNloZw4cPRzqdjrdzEGm+VFRUIC8vr0b3i0QiQefOneNNJ1EHVavVfNiIEEKopqYGqVQqWt1r1qzhJG/+/Pm0soKCgvg5CZFmj06nM3BSAEAajYYXfUQd9Pvvv+fDRoQQYvyGHDVqFOePdp1Oh1xdXWllRkdH83QmIs2diooKo41Feno6cV1EHTQ8PJy4gQghdPLkSUa9ly5dMkluWloao9zMzEzCZyJiKxQVFSG5XG7wupuRkUFUD9FIolatWpEUBwAAFEXB5MmTacs9PT3h008/NUn24MGDYfjw4bTlCxcuNEmuiO0jlUohISGhUWekVquF4cOHQ25uLjE9gg/127FjB2i1WtrylStXmiV/7dq1tGWpqamQlJRklnwR26VHjx4QHR3daJ9WqwVfX1+orq4mo4RrkwsMr4RRUVFEm/fS0lKDQeJXN5lMhvR6vVk69Ho9kkqltDpUKpXZOkRsm8mTJxvcN7NmzSIiW9At6J49exhbzy+//JLzOGpT7Ozs4KuvvqItz8jIgFOnTpmlQ8S22bJli8G4+969eyEyMtJs2YJ10KqqKvjxxx8Z63z++edEdHl5eTGWr1u3jogeEdukQ4cORuPAp06dCjk5OWbJFqyDxsfHM7aeEokEBg0aRESXm5ub0cijBjIyMuDBgwdEdInYJr6+vkYnXixYsMAsuYJ10NOnTzOWu7m5gb09mdlyLVu2ZHX2kydPEtElYrt8++23BvsSExPh999/N1mmIB20vr4ejh8/zliHxDQ1LvKOHDlCVJ+I7eHl5QVyudxg/9y5c6GystIkmYJ00L/++ovx9RYA4OOPPyaq86OPPmIsT09Ph7y8PKI6RWwLe3t7+Oabbwz2UxQFGzZsMEmmIB00ISGBtU7fvn2J6uzTpw9rnfj4eKI6RWwPuqCadevWQVFREWd5gnTQP//8k7VOz549ierEmTJ0+fJlojpFbI82bdrQjgrs2bOHszxBOuj169cZy2UyGbEOogZatWoFMpmMsc7ff/9NVKeIbULnoJs2bYKqqipOsgTnoIWFhazfn926deNFN5uDXr16FXQ6HS+6RWyHUaNGGd2v1WoNQgPZEFxWvzt37rDWef/993nR3aVLF0hPT2esc+fOHVAqlbzoFxL379+HtLQ0uHDhAjx69AgeP34MAP9eo86dO0Pnzp3BwcEBBg4cCM7OzmZHdLFx69YtSE5OhitXrgBFUfDkyRN4/vw5tG/fHrp27QqOjo7g5OQEnp6ejGPalsDR0RGUSiVkZWUZlIWFhcG0adOgRQvMtpFrbCDwHIu7d+9e1qwNixcvNluPMZgmcTdspuZRag7U1dWhmJgY5OzszHodXt2kUikKDQ1FWq2WqD3V1dVo9+7dBvmA2LYJEyagtLQ0orZwZfbs2USmRwruFRcnNKpz58686MaRm52dzYtua3Py5EmQy+UwYcIEuHr1KqdjKYqCZcuWgYODAxw8eJCYPd26dYOvv/4a8vPzOR0bExMDQ4YMgblz50J5eTkRe7jCNMoQFxeHLUdwDvr06VPWOh06dOBFt1QqZa1TXFzMi25rUV5eDjNnzoSxY8dydoSmaLVamDZtGkyaNAnKyspMklFbWwtBQUEwduxYoCjKLHt27doFPXv2hLNnz5olxxQ+/PBD2rKjR49iyxGcg1ZUVLDW4SvrHk7WcGs9kfkgPz8fnJycOCX8xuHIkSPwySefwKNHjzgdp9frYfr06bBlyxZitlAUBR4eHiYNcZgDk4Pevn0bbt26hSVHcA76/Plz1jp8ZG7AlYtjX3OAoigYMWIE0dn/r5KbmwsqlQr7RgQAWLVqFRw+fJgXe2bPno01vk4KBwcHxs4q3NdcwTko2xALAMDrr7/Oi24cuaWlpbzotiRlZWUwevRouH37ttHygIAASEpKgsLCQigvL4fs7Gz49ddfaYcP6KAoClQqFVa/Qnh4OKxfv56TfK74+PhwemCYg52dHXTp0oW2PC0tDU8Q194p4LkXlynvbcOWmJhoth5jJCQksOp2dnbmRbclCQwMNHpuEokEpaamMh6blZWFhg8fzqlXVSaTocePH9PKxLnupDa5XI5KSkpIX1KjMF0nqVSKJUNwLShO58Ibb7zBi26cFtTcjgtrc/nyZdi3b5/BfqVSCZmZmTBkyBDG43v37g1JSUkQERGBrTM/Px9Gjx5t9POAoij44osvWGV4enrC5s2b4dixY5CcnAyJiYkQGRkJa9asAYVCgW1Lbm6uxb5HO3XqRFtGURTevcT1qQA8t6A4Y14XL140W48xYmNjbboFffHiBXJxcTHacprSqqSnpzPmc2q6eXh4GGTtDwgIYDxm48aNqKqqitWWjIwMNHr0aCw7pFIpqqur43y+XFmwYAGjHcnJyawyBNeC4vSk1tXV8aL7nXfeYa1j6vCBEPjjjz+MRkpt3LgR69ybMmDAALh06RJriGQDCQkJsHr16pe/z58/TztuGhAQAI8fP4alS5di9dr3798f4uPj4dChQ6x1KYqyyAR8tuFAtphzAAF2EtEttvQqfDlobW0ta5127drxotsSGIsDVSgUMGPGDJNlOjo6QkpKCtYYMgBASEgInDhxAnQ6HcyePdtonZSUFIiIiOC8yLKdnR1MmTIFzp8/z1p369atnGSbQvv27RnL7969yypDcA6KE0eJ40imUFNTw1rnrbfe4kU331RVVRnNUrFu3TqzZwb16NEDEhMTsWNgfXx8YNasWUZjVVNTU2Ho0KFm2ePm5sY6p1ij0UBmZqZZetho2bIlYznO25jgHBTHAXAcyRRwWua2bdvyoptvUlJSjO5XqVRE5Pfr14/TTA1jr7YJCQmsnVS4uLu7g6+vL2OdCxcuENFFB5uD4gzZCc5Bhf6Ka+2ZEqZC983VtWtXYjo8PT3hhx9+MOnYQ4cOgbu7OzFbAKDR964x+J6Ab5MtqKOjI2sdYmn1m4DTMvMVB8w3Go3GYJ+Liwv+tCdMVqxYAZ6enpyO8fPzgylTphC1A+DfgHU/Pz/acq6TArjC9umAE3cuOAf94IMPWOuYktsFB5wL1qNHD150842xhGckW88GWrRoAeHh4dhvGjKZDHbu3EncjgaY1u558uQJb3oBbLQF7d69O2udwsJCXnTjyOUyKC4UamtrjYZQmpoKko333nsPfvvtN6y6bdu25bXjrXfv3uDt7W20zNpBJzix383SQQsKCnjRjTPdyljeU6Hz7Nkzo/v5vEG9vLwgMDCQtV5WVhZs27aNNzsAAIYNG0ZbxmcKGzbZOB2OgnNQnLGvhvQbpMFxfJwHiNCgc8SMjAxeb9CwsDCs8dGlS5fyurTGgAEDaMv4TNVikw5qb2/P2vVv7sRiOh4+fMhYrlAoeJvqxidM39Y40Sym0q5dO9i9ezdW3Xnz5vFmB11KVYlEQjw75KuwOSjOiIXgHBSAPitaA/n5+cR7cmtqalgdn9QYnaVh6qlNTU3lVfe4ceNovwFfJT4+nli6lKbQOQJfqXMaYBsObJYtKADzN0MD5i7r1hScXEMeHh5EdVoKphshLCyMc65WrkybNg27HtcsDDi0aNHCaK8y358rbC0ozpCiIB3U2DJuTblx4wZRnThhX+aGoFkLplcpiqLgwIEDvOl++vQpp9fXmTNngl6vJ2pDVVWV0V5stVpNVE9T2CKFcFZHEKSDtmnTBlxdXRnrXLt2jahONgd1cXGBd999l6hOS8EWtB0cHMxLK6rT6WDChAmc+gwSExMhLCyMqB10WRT4fuCyjdfjjKkL0kEB2FfPJh2mlZGRwVg+ZswYovosSceOHRl7UymKMjqJ2xxqampg0qRJJn3jLl++nDZ22BToPof69+9PTIcx2AJfsIbsuE5CBZ4nbDdQWFjIOvG2vLyciK6ysjJWXTk5OUR0WYvx48cznp9EIkF3794loqu8vJxzWhRj9uTl5RGxZ8mSJQbyp0+fTkQ2E66uroznV19fzypDsC1op06dwN/fn7FOYmIiEV1seVO9vb2xVj8TMm5ubozlWq0W3N3dzQ4CefLkCYwYMQKSk5MNyvz9/YGiKKyxUa1WCx4eHmYnaSssLISffvrJYD+fwzqv6qbD3d0dXnvtNXYhXJ8KYKEWFCGENBoNoz5/f38ieiZMmMCohy2RVnOguLgYq+WSy+UoIyODs/yKigq0fv16xhajqKgIIYTQ+fPnsVtSV1dXVFlZafJ5G1uCQa1WmywPF51Ox3heu3btwpIjaAdFCKF+/fox/uk1NTVmya+srGQ8J1NzEGk0GrR582YUGBiIZs+ejfbt24cuX75skJPHkixevBjbMdauXYuKi4tZZep0OrR//37W3EQHDhxodFxISAgnJ3327Bnn871+/bpReUlJSZxlcSUnJ4fxnG7cuIElR/AOGhcXx6gzMjLSLPlsizVxXSzp2bNnyNfXl1aeUqlE6enpZtlsKrm5udhO0bD5+fmh6OhopNFo0L1791BOTg7SaDQoMjISTZ06FStpmFqtRi9evGhkS319PXaSL4B/W/bbt29jn2tmZqbRBHQBAQGkL6tRjh8/TnsuUqnU4HrQIXgHRQghf39/Wp0ymQzV1taaJLeqqorxBvP29uYs08fHB+uGS0hIMMlmc/Hz8+PspOZsEokEZWdnG7WlqKiI88ploaGhrP83nXNIJBKstwISrF27lvYcli9fji2nWThocXExoyPt3bvXJLlbt25lfMpRFMVJXkpKCqcb9969eybZbQ5ZWVkWdc6rV68y2pOXl4fkcjknuTKZDAUHB6OcnJyXnww6nQ5dvHgRzZgxg/a4M2fOWOISI4QQ8vb2prXjn3/+wZbTLBwUIYROnDjBeCPcv3+fk7zbt28jiURC9M/cuHEjpxtt/vz5nHWQ4Ny5c7w7p1QqRTdv3sSyp6CgAGtFAab/n61OdHQ0z1f1v9TW1tLapFKpOMlqNg6KEEIrV66k1a1QKLCTL1MUxfjUXrZsmUn2MT296baKigqTdJnL6dOneXVOLt+LCP37nzB1CJqzmfqGZSpJSUm0toSHh3OS1awcFCGEtmzZQqtfrVajR48eMR5/7949pFKpaGWEhoaabFtQUBDnmyczM9NkfeZy7Ngx4s7Qr18/lJuba5I9xcXFSK1WE7NFIpGgU6dOEb5q7NBllJfL5Zz7S5qdgyKEUFRUFKMdGzZsQKWlpY2OKSkpQcHBwYzHmbu8/f79+znfRLGxsWbpNJfs7Gzsji22bfv27WYPI9XX16Nt27aZbYu3t/fLcVdL8uLFC9r+kmPHjnGW1ywdFKF/XyPYXolkMhlSq9WsQwEKhQJpNBqzbdJqtVjfQ9a6ZkxoNBrG0DS6TS6Xo61bt5o0TslEXl4eWrZsGWd7Jk6caJFxTjroOgpVKhXS6/Wc5TVbB0UIIb1ej+Li4owuCISzubq6otjYWKyYSFxu3LjBqVeSxIOBFHq9HmVmZqJt27Yhb29vpFQqGz1wZDIZUqlUyN/fH+3evRtdvXrVpJuOC8+fP0exsbFo0aJFyMXFpdGwjFwuR6NHj0Zz5sxBu3bt4tzrzgd0McimRqPZIYQQcIAph0tUVBRMnjyZizhipKSkwJkzZyAnJwdu3bpldHFauVwOvXr1gl69eoGvry8MGjSIF1v0ej1cvHgRbt68CU+fPoXWrVuDo6Mj1NXVwaRJkxrVLSkpMWnhIhHhkZ6eDgMHDjTY7+npib2idlNsxkGbUl9fD3l5eUBRFHTs2BG6dOnCmqfUEvTp0+flmiQymcxovlqR5slnn30G8fHxBvuzsrKgd+/eJsnkL2OSlbG3t4fu3bsLKgtfdXV1owWDSK2LImJ90tLSjDrn4cOHTXZOAAFP2LZFmiZznjNnjpUsESFJeXm50TfH+fPnG3zScEV0UAtRUlICQUFBL397eHjAyJEjrWiRCCmCgoIM0rq4urrCpk2bzJYtOqgF0Ov1sGjRokaJq0JCQqxokQgpYmNjITw8vNE+iUQCMTExRHIoE3VQvtM3NleWLFkCUVFRL39PnToVnJycrGiRCAlu3bpl9NU2Li6O8+rgdBB10NzcXJLimj0IIVixYkWj5dZdXV1hx44dVrRKhAQFBQUwcuRIg3SeiYmJMHjwYGJ6iPbismXG+1+ivLwcAgMDISYm5uU+Z2dniI+PhzZt2ljRMhFzKS0thVGjRjX67pRIJHD27FmsnM6c4BrZACyRMZaccydUrl+/bjB9SqlUEg+HE7E8lZWVBgH9UqmUt0kPxB0UAFBISAh6+PChVfPvWIvq6mqD6zFv3jxUVlZmbdNEzKSkpMTAOWUyGbpz5w5vOnlx0Fc3iURCux0+fJiPc7I6DbPplUolunjxorXNESHAo0ePkFKpbHRvOzs7E8vdSwfvkUTG1sRooLa2lm/1ViE0NBQ8PDxgxowZzXK5QpHG3Lx5E0aMGNFondVVq1bBypUref9/OTuoQqEgNpwipDA8kjQE5Is0f65cuQLDhg172dDIZDI4evQobxMtmsLZQekWohERsUXy8/NfOmdAQAD8/PPPWOt6koLzbBYRkf8lEEIwffp08PLygnHjxllcv+igIiICRozFFRERMKKDiogIGNFBRUQEjOigIiICRnRQEREBIzqoiIiA+T98/pZRQYdfrQAAAABJRU5ErkJggg==;" vertex="1" parent="1">
          <mxGeometry x="288.41999999999996" y="104.5" width="23.58" height="9.15" as="geometry" />
        </mxCell>
        <mxCell id="eKCBTj_nnN3iUb_JfraB-140" value="&lt;span style=&quot;font-style: normal; font-variant-ligatures: normal; font-variant-caps: normal; letter-spacing: normal; orphans: 2; text-align: left; text-indent: 0px; text-transform: none; widows: 2; word-spacing: 0px; -webkit-text-stroke-width: 0px; white-space: nowrap; text-decoration-thickness: initial; text-decoration-style: initial; text-decoration-color: initial; float: none; display: inline !important;&quot;&gt;&lt;font style=&quot;color: rgb(76, 0, 153); font-size: 14px;&quot; face=&quot;Courier New&quot;&gt;&lt;b style=&quot;&quot;&gt;Property&lt;/b&gt;&lt;/font&gt;&lt;/span&gt;" style="text;whiteSpace=wrap;html=1;shadow=1;" vertex="1" parent="1">
          <mxGeometry x="316.5" y="52" width="77" height="11.85" as="geometry" />
        </mxCell>
      </root>
    </mxGraphModel>
  </diagram>
</mxfile>
